Inter-Black.ufo
<glyph name="hyphen" format="2">
  <advance width="1336.0"/>
  <unicode hex="002D"/>
  <guideline x="1104.0" y="816.0" angle="0.0"/>
  <outline>
    <contour>
      <point x="1148.0" y="1024.0" type="line"/>
      <point x="188.0" y="1024.0" type="line"/>
      <point x="188.0" y="608.0" type="line"/>
      <point x="1148.0" y="608.0" type="line"/>
    </contour>
  </outline>
</glyph>
<glyph name="two" format="2">
  <advance width="1820.0"/>
  <unicode hex="0032"/>
  <guideline x="-16.0" y="2280.0" angle="0.0"/>
  <guideline x="-16.0" y="764.0" angle="0.0"/>
  <outline>
    <contour>
      <point x="136.0" y="0.0" type="line"/>
      <point x="1708.0" y="0.0" type="line"/>
      <point x="1708.0" y="444.0" type="line"/>
      <point x="908.0" y="444.0" type="line"/>
      <point x="908.0" y="456.0" type="line"/>
      <point x="1100.0" y="616.0" type="line" smooth="yes"/>
      <point x="1567.0" y="1005.0"/>
      <point x="1686.0" y="1207.0"/>
      <point x="1686.0" y="1444.0" type="curve" smooth="yes"/>
      <point x="1686.0" y="1826.0"/>
      <point x="1373.0" y="2076.0"/>
      <point x="882.0" y="2076.0" type="curve" smooth="yes"/>
      <point x="405.0" y="2076.0"/>
      <point x="95.0" y="1811.0"/>
      <point x="96.0" y="1380.0" type="curve"/>
      <point x="624.0" y="1380.0" type="line"/>
      <point x="623.0" y="1552.0"/>
      <point x="728.0" y="1648.0"/>
      <point x="882.0" y="1648.0" type="curve" smooth="yes"/>
      <point x="1035.0" y="1648.0"/>
      <point x="1144.0" y="1553.0"/>
      <point x="1144.0" y="1396.0" type="curve" smooth="yes"/>
      <point x="1144.0" y="1251.0"/>
      <point x="1051.0" y="1157.0"/>
      <point x="900.0" y="1032.0" type="curve" smooth="yes"/>
      <point x="136.0" y="400.0" type="line"/>
    </contour>
  </outline>
</glyph>
<glyph name="f" format="2">
  <advance width="1132.0"/>
  <unicode hex="0066"/>
  <guideline x="-32.0" y="1228.0" angle="0.0"/>
  <guideline x="-32.0" y="256.0" angle="0.0"/>
  <outline>
    <contour>
      <point x="1060.0" y="1536.0" type="line"/>
      <point x="32.0" y="1536.0" type="line"/>
      <point x="32.0" y="1136.0" type="line"/>
      <point x="1060.0" y="1136.0" type="line"/>
    </contour>
    <component base="_part.f_base" xOffset="-24.0"/>
  </outline>
</glyph>
<glyph name="copyright" format="2">
  <advance width="2576.0"/>
  <unicode hex="00A9"/>
  <note>
Stroke R: 116
Stroke B: 160
</note>
  <guideline x="20.0" y="1240.0" angle="0.0"/>
  <guideline x="20.0" y="764.0" angle="0.0"/>
  <outline>
    <contour>
      <point x="750.0" y="1024.0" type="curve" smooth="yes"/>
      <point x="750.0" y="724.0"/>
      <point x="994.0" y="480.0"/>
      <point x="1294.0" y="480.0" type="curve" smooth="yes"/>
      <point x="1560.0" y="480.0"/>
      <point x="1784.0" y="674.0"/>
      <point x="1810.0" y="928.0" type="curve"/>
      <point x="1476.0" y="928.0" type="line"/>
      <point x="1460.0" y="852.0"/>
      <point x="1383.0" y="800.0"/>
      <point x="1294.0" y="800.0" type="curve" smooth="yes"/>
      <point x="1171.0" y="800.0"/>
      <point x="1070.0" y="902.0"/>
      <point x="1070.0" y="1026.0" type="curve" smooth="yes"/>
      <point x="1070.0" y="1150.0"/>
      <point x="1171.0" y="1248.0"/>
      <point x="1294.0" y="1248.0" type="curve" smooth="yes"/>
      <point x="1383.0" y="1248.0"/>
      <point x="1460.0" y="1196.0"/>
      <point x="1476.0" y="1120.0" type="curve"/>
      <point x="1810.0" y="1120.0" type="line"/>
      <point x="1784.0" y="1374.0"/>
      <point x="1560.0" y="1568.0"/>
      <point x="1294.0" y="1568.0" type="curve" smooth="yes"/>
      <point x="994.0" y="1568.0"/>
      <point x="750.0" y="1324.0"/>
    </contour>
    <component base="circlewhite"/>
  </outline>
</glyph>
<glyph name="registered" format="2">
  <advance width="1856.0"/>
  <unicode hex="00AE"/>
  <note>
Stroke L: 32
Stroke R: 96
Stroke B: 112
</note>
  <outline>
    <contour>
      <point x="632.0" y="916.0" type="line"/>
      <point x="844.0" y="916.0" type="line"/>
      <point x="844.0" y="1498.0" type="line"/>
      <point x="944.0" y="1498.0" type="line" smooth="yes"/>
      <point x="1008.0" y="1498.0"/>
      <point x="1042.0" y="1466.0"/>
      <point x="1042.0" y="1404.0" type="curve" smooth="yes"/>
      <point x="1042.0" y="1345.0"/>
      <point x="1008.0" y="1314.0"/>
      <point x="944.0" y="1314.0" type="curve" smooth="yes"/>
      <point x="746.0" y="1314.0" type="line"/>
      <point x="746.0" y="1162.0" type="line"/>
      <point x="978.0" y="1162.0" type="line" smooth="yes"/>
      <point x="1154.0" y="1162.0"/>
      <point x="1260.0" y="1250.0"/>
      <point x="1260.0" y="1404.0" type="curve" smooth="yes"/>
      <point x="1260.0" y="1556.0"/>
      <point x="1158.0" y="1654.0"/>
      <point x="984.0" y="1654.0" type="curve" smooth="yes"/>
      <point x="632.0" y="1654.0" type="line"/>
    </contour>
    <contour>
      <point x="1120.0" y="1252.0" type="line"/>
      <point x="904.0" y="1252.0" type="line"/>
      <point x="1046.0" y="916.0" type="line"/>
      <point x="1278.0" y="916.0" type="line"/>
    </contour>
    <contour>
      <point x="928.0" y="476.0" type="curve" smooth="yes"/>
      <point x="1371.0" y="476.0"/>
      <point x="1728.0" y="834.0"/>
      <point x="1728.0" y="1276.0" type="curve" smooth="yes"/>
      <point x="1728.0" y="1718.0"/>
      <point x="1370.0" y="2076.0"/>
      <point x="928.0" y="2076.0" type="curve" smooth="yes"/>
      <point x="486.0" y="2076.0"/>
      <point x="128.0" y="1718.0"/>
      <point x="128.0" y="1276.0" type="curve" smooth="yes"/>
      <point x="128.0" y="834.0"/>
      <point x="486.0" y="476.0"/>
    </contour>
    <contour>
      <point x="928.0" y="700.0" type="curve" smooth="yes"/>
      <point x="610.0" y="700.0"/>
      <point x="352.0" y="958.0"/>
      <point x="352.0" y="1276.0" type="curve" smooth="yes"/>
      <point x="352.0" y="1594.0"/>
      <point x="610.0" y="1852.0"/>
      <point x="928.0" y="1852.0" type="curve" smooth="yes"/>
      <point x="1246.0" y="1852.0"/>
      <point x="1504.0" y="1594.0"/>
      <point x="1504.0" y="1276.0" type="curve" smooth="yes"/>
      <point x="1504.0" y="957.0"/>
      <point x="1247.0" y="700.0"/>
    </contour>
  </outline>
</glyph>
<glyph name="degree" format="2">
  <advance width="1304.0"/>
  <unicode hex="00B0"/>
  <outline>
    <contour>
      <point x="652.0" y="1036.0" type="curve" smooth="yes"/>
      <point x="935.0" y="1036.0"/>
      <point x="1164.0" y="1265.0"/>
      <point x="1164.0" y="1548.0" type="curve" smooth="yes"/>
      <point x="1164.0" y="1831.0"/>
      <point x="935.0" y="2060.0"/>
      <point x="652.0" y="2060.0" type="curve" smooth="yes"/>
      <point x="369.0" y="2060.0"/>
      <point x="140.0" y="1831.0"/>
      <point x="140.0" y="1548.0" type="curve" smooth="yes"/>
      <point x="140.0" y="1265.0"/>
      <point x="369.0" y="1036.0"/>
    </contour>
    <contour>
      <point x="652.0" y="1376.0" type="curve" smooth="yes"/>
      <point x="557.0" y="1376.0"/>
      <point x="480.0" y="1453.0"/>
      <point x="480.0" y="1548.0" type="curve" smooth="yes"/>
      <point x="480.0" y="1643.0"/>
      <point x="557.0" y="1720.0"/>
      <point x="652.0" y="1720.0" type="curve" smooth="yes"/>
      <point x="747.0" y="1720.0"/>
      <point x="824.0" y="1643.0"/>
      <point x="824.0" y="1548.0" type="curve" smooth="yes"/>
      <point x="824.0" y="1453.0"/>
      <point x="747.0" y="1376.0"/>
    </contour>
  </outline>
</glyph>
<glyph name="acute" format="2">
  <advance width="1400.0"/>
  <unicode hex="00B4"/>
  <outline>
    <contour>
      <point x="516.0" y="1728.0" type="line"/>
      <point x="880.0" y="1728.0" type="line"/>
      <point x="1180.0" y="2176.0" type="line"/>
      <point x="708.0" y="2176.0" type="line"/>
    </contour>
  </outline>
</glyph>
<glyph name="Nhook" format="2">
  <advance width="2108.0"/>
  <unicode hex="019D"/>
  <outline>
    <contour>
      <point x="204.0" y="0.0" type="line"/>
      <point x="204.0" y="-48.0" type="line" smooth="yes"/>
      <point x="204.0" y="-140.0"/>
      <point x="98.0" y="-160.0"/>
      <point x="-4.0" y="-160.0" type="curve"/>
      <point x="-26.0" y="-160.0"/>
      <point x="-66.0" y="-164.0"/>
      <point x="-96.0" y="-160.0" type="curve"/>
      <point x="-96.0" y="-568.0" type="line"/>
      <point x="-38.0" y="-576.0"/>
      <point x="90.0" y="-576.0"/>
      <point x="144.0" y="-576.0" type="curve"/>
      <point x="434.0" y="-576.0"/>
      <point x="760.0" y="-532.0"/>
      <point x="760.0" y="-48.0" type="curve" smooth="yes"/>
      <point x="760.0" y="0.0" type="line"/>
    </contour>
    <component base="N" xOffset="72.0"/>
  </outline>
</glyph>
<glyph name="Nsmallcap" format="2">
  <advance width="1824.0"/>
  <unicode hex="0274"/>
  <guideline x="1078.0" y="152.0" angle="308.0"/>
  <guideline x="978.0" y="1010.0" angle="308.0"/>
  <outline>
    <contour>
      <point x="1684.0" y="1536.0" type="line"/>
      <point x="1140.0" y="1536.0" type="line"/>
      <point x="1140.0" y="832.0" type="line"/>
      <point x="1124.0" y="832.0" type="line"/>
      <point x="574.0" y="1536.0" type="line"/>
      <point x="140.0" y="1536.0" type="line"/>
      <point x="140.0" y="0.0" type="line"/>
      <point x="672.0" y="0.0" type="line"/>
      <point x="672.0" y="634.0" type="line"/>
      <point x="684.0" y="634.0" type="line"/>
      <point x="1176.0" y="0.0" type="line"/>
      <point x="1684.0" y="0.0" type="line"/>
    </contour>
  </outline>
</glyph>
<glyph name="rturnrthook" format="2">
  <advance width="1420.0"/>
  <unicode hex="027B"/>
  <outline>
    <contour>
      <point x="1176.0" y="-600.0" type="curve" smooth="yes"/>
      <point x="1288.0" y="-600.0"/>
      <point x="1368.0" y="-592.0"/>
      <point x="1452.0" y="-580.0" type="curve"/>
      <point x="1452.0" y="-236.0" type="line"/>
      <point x="1404.0" y="-240.0"/>
      <point x="1376.0" y="-244.0"/>
      <point x="1324.0" y="-244.0" type="curve" smooth="yes"/>
      <point x="1155.0" y="-244.0"/>
      <point x="1080.0" y="-183.0"/>
      <point x="1080.0" y="-44.0" type="curve" smooth="yes"/>
      <point x="1080.0" y="0.0" type="line"/>
      <point x="544.0" y="0.0" type="line"/>
      <point x="544.0" y="-76.0" type="line" smooth="yes"/>
      <point x="544.0" y="-532.0"/>
      <point x="836.0" y="-600.0"/>
    </contour>
    <component base="rturn"/>
  </outline>
</glyph>
<glyph name="rrthook.1" format="2">
  <advance width="1260.0"/>
  <unicode hex="027D"/>
  <outline>
    <contour>
      <point x="752.0" y="-576.0" type="curve" smooth="yes"/>
      <point x="885.0" y="-576.0"/>
      <point x="961.0" y="-564.0"/>
      <point x="1024.0" y="-560.0" type="curve"/>
      <point x="1024.0" y="-152.0" type="line"/>
      <point x="981.0" y="-156.0"/>
      <point x="941.0" y="-160.0"/>
      <point x="900.0" y="-160.0" type="curve" smooth="yes"/>
      <point x="805.0" y="-160.0"/>
      <point x="692.0" y="-140.0"/>
      <point x="692.0" y="-48.0" type="curve" smooth="yes"/>
      <point x="692.0" y="0.0" type="line"/>
      <point x="140.0" y="0.0" type="line"/>
      <point x="140.0" y="-48.0" type="line" smooth="yes"/>
      <point x="140.0" y="-500.0"/>
      <point x="413.0" y="-576.0"/>
    </contour>
    <component base="r.1"/>
  </outline>
</glyph>
<glyph name="commareversedmod" format="2">
  <advance width="888.0"/>
  <unicode hex="02BD"/>
  <outline>
    <contour>
      <point x="374.0" y="1364.0" type="curve"/>
      <point x="714.0" y="1364.0" type="line"/>
      <point x="682.0" y="1474.0"/>
      <point x="590.0" y="1760.0"/>
      <point x="590.0" y="2032.0" type="curve" smooth="yes"/>
      <point x="590.0" y="2144.0" type="line"/>
      <point x="174.0" y="2144.0" type="line"/>
      <point x="182.0" y="2032.0" type="line" smooth="yes"/>
      <point x="203.0" y="1742.0"/>
      <point x="326.0" y="1474.0"/>
    </contour>
  </outline>
</glyph>
<glyph name="ringhalfright" format="2">
  <advance width="456.0"/>
  <unicode hex="02BE"/>
  <guideline x="406.0" y="2016.0" angle="0.0"/>
  <outline>
    <contour>
      <point x="64.0" y="1524.0" type="line"/>
      <point x="220.0" y="1524.0"/>
      <point x="348.0" y="1632.0"/>
      <point x="348.0" y="1792.0" type="curve" smooth="yes"/>
      <point x="348.0" y="1956.0"/>
      <point x="220.0" y="2072.0"/>
      <point x="64.0" y="2072.0" type="curve"/>
      <point x="64.0" y="1878.0" type="line"/>
      <point x="117.0" y="1878.0"/>
      <point x="156.0" y="1842.0"/>
      <point x="156.0" y="1792.0" type="curve" smooth="yes"/>
      <point x="156.0" y="1746.0"/>
      <point x="117.0" y="1712.0"/>
      <point x="64.0" y="1712.0" type="curve"/>
    </contour>
  </outline>
</glyph>
<glyph name="ringhalfleft" format="2">
  <advance width="456.0"/>
  <unicode hex="02BF"/>
  <outline>
    <contour>
      <point x="392.0" y="1524.0" type="curve"/>
      <point x="392.0" y="1712.0" type="line"/>
      <point x="339.0" y="1712.0"/>
      <point x="300.0" y="1746.0"/>
      <point x="300.0" y="1792.0" type="curve" smooth="yes"/>
      <point x="300.0" y="1842.0"/>
      <point x="339.0" y="1878.0"/>
      <point x="392.0" y="1878.0" type="curve"/>
      <point x="392.0" y="2072.0" type="line"/>
      <point x="236.0" y="2072.0"/>
      <point x="108.0" y="1956.0"/>
      <point x="108.0" y="1792.0" type="curve" smooth="yes"/>
      <point x="108.0" y="1632.0"/>
      <point x="236.0" y="1524.0"/>
    </contour>
  </outline>
</glyph>
<glyph name="caron" format="2">
  <advance width="1776.0"/>
  <unicode hex="02C7"/>
  <guideline x="1248.0" y="1720.0" angle="0.0"/>
  <outline>
    <contour>
      <point x="692.0" y="2188.0" type="line"/>
      <point x="236.0" y="2188.0" type="line"/>
      <point x="236.0" y="2176.0" type="line"/>
      <point x="696.0" y="1720.0" type="line"/>
      <point x="1080.0" y="1720.0" type="line"/>
      <point x="1540.0" y="2176.0" type="line"/>
      <point x="1540.0" y="2188.0" type="line"/>
      <point x="1084.0" y="2188.0" type="line"/>
      <point x="888.0" y="1968.0" type="line"/>
    </contour>
  </outline>
</glyph>
<glyph name="breve" format="2">
  <advance width="1420.0"/>
  <unicode hex="02D8"/>
  <outline>
    <contour>
      <point x="910.0" y="2088.0" type="line"/>
      <point x="909.0" y="2000.0"/>
      <point x="853.0" y="1920.0"/>
      <point x="710.0" y="1920.0" type="curve" smooth="yes"/>
      <point x="561.0" y="1920.0"/>
      <point x="505.0" y="2004.0"/>
      <point x="506.0" y="2088.0" type="curve"/>
      <point x="162.0" y="2088.0" type="line"/>
      <point x="161.0" y="1828.0"/>
      <point x="373.0" y="1660.0"/>
      <point x="710.0" y="1660.0" type="curve" smooth="yes"/>
      <point x="1045.0" y="1660.0"/>
      <point x="1257.0" y="1828.0"/>
      <point x="1258.0" y="2088.0" type="curve"/>
    </contour>
  </outline>
</glyph>
<glyph name="dblgravecmb" format="2">
  <unicode hex="030F"/>
  <outline>
    <contour>
      <point x="-908.0" y="1728.0" type="line"/>
      <point x="-1100.0" y="2176.0" type="line"/>
      <point x="-1572.0" y="2176.0" type="line"/>
      <point x="-1272.0" y="1728.0" type="line"/>
    </contour>
    <contour>
      <point x="-376.0" y="1728.0" type="line"/>
      <point x="-478.0" y="2176.0" type="line"/>
      <point x="-924.0" y="2176.0" type="line"/>
      <point x="-730.0" y="1728.0" type="line"/>
    </contour>
  </outline>
</glyph>
<glyph name="seagullsubnosp" format="2">
  <advance width="40.0"/>
  <unicode hex="033C"/>
  <note>
position under "x".
offset curve settings:
L: 32,32,0%
R: 70,80,0%
B: 110,90,0%
</note>
  <guideline x="-840.0" y="-260.0" angle="90.0"/>
  <outline>
    <contour>
      <point x="-730.0" y="-480.0" type="line"/>
      <point x="-730.0" y="-369.0"/>
      <point x="-665.0" y="-310.0"/>
      <point x="-554.0" y="-310.0" type="curve" smooth="yes"/>
      <point x="-443.0" y="-310.0"/>
      <point x="-378.0" y="-369.0"/>
      <point x="-378.0" y="-480.0" type="curve"/>
      <point x="-158.0" y="-480.0" type="line"/>
      <point x="-158.0" y="-263.0"/>
      <point x="-329.0" y="-130.0"/>
      <point x="-554.0" y="-130.0" type="curve" smooth="yes"/>
      <point x="-779.0" y="-130.0"/>
      <point x="-950.0" y="-263.0"/>
      <point x="-950.0" y="-480.0" type="curve"/>
    </contour>
    <contour>
      <point x="-1302.0" y="-480.0" type="line"/>
      <point x="-1302.0" y="-369.0"/>
      <point x="-1237.0" y="-310.0"/>
      <point x="-1126.0" y="-310.0" type="curve" smooth="yes"/>
      <point x="-1015.0" y="-310.0"/>
      <point x="-950.0" y="-369.0"/>
      <point x="-950.0" y="-480.0" type="curve"/>
      <point x="-730.0" y="-480.0" type="line"/>
      <point x="-730.0" y="-263.0"/>
      <point x="-901.0" y="-130.0"/>
      <point x="-1126.0" y="-130.0" type="curve" smooth="yes"/>
      <point x="-1351.0" y="-130.0"/>
      <point x="-1522.0" y="-263.0"/>
      <point x="-1522.0" y="-480.0" type="curve"/>
    </contour>
  </outline>
</glyph>
<glyph name="chi" format="2">
  <advance width="1766.0"/>
  <unicode hex="03C7"/>
  <note>
stroke R: 110, 50%
stroke B: ({Filter="OffsetCurve;250;200;1;0.5;";})
</note>
  <guideline x="222.0" y="1336.0" angle="0.0"/>
  <guideline x="1630.0" y="-362.0" angle="0.0"/>
  <guideline x="1270.0" y="-562.0" angle="0.0"/>
  <outline>
    <contour>
      <point x="36.0" y="-562.0" type="line"/>
      <point x="582.0" y="-562.0" type="line"/>
      <point x="884.0" y="-16.0" type="line"/>
      <point x="1004.0" y="-232.0" type="line" smooth="yes"/>
      <point x="1147.0" y="-490.0"/>
      <point x="1280.0" y="-562.0"/>
      <point x="1610.0" y="-562.0" type="curve" smooth="yes"/>
      <point x="1724.0" y="-562.0" type="line"/>
      <point x="1724.0" y="-162.0" type="line"/>
      <point x="1610.0" y="-162.0" type="line" smooth="yes"/>
      <point x="1510.0" y="-162.0"/>
      <point x="1504.0" y="-154.0"/>
      <point x="1442.0" y="-40.0" type="curve" smooth="yes"/>
      <point x="978.0" y="808.0" type="line"/>
      <point x="792.0" y="808.0" type="line"/>
    </contour>
    <contour>
      <point x="800.0" y="148.0" type="line"/>
      <point x="980.0" y="148.0" type="line"/>
      <point x="1742.0" y="1536.0" type="line"/>
      <point x="1196.0" y="1536.0" type="line"/>
      <point x="886.0" y="974.0" type="line"/>
      <point x="758.0" y="1208.0" type="line" smooth="yes"/>
      <point x="618.0" y="1463.0"/>
      <point x="474.0" y="1536.0"/>
      <point x="150.0" y="1536.0" type="curve" smooth="yes"/>
      <point x="36.0" y="1536.0" type="line"/>
      <point x="36.0" y="1136.0" type="line"/>
      <point x="150.0" y="1136.0" type="line" smooth="yes"/>
      <point x="248.0" y="1136.0"/>
      <point x="257.0" y="1128.0"/>
      <point x="320.0" y="1014.0" type="curve" smooth="yes"/>
    </contour>
  </outline>
</glyph>
<glyph name="uni1DFF" format="2">
  <unicode hex="1DFF"/>
  <guideline x="-238.0" y="-416.0" angle="0.0"/>
  <outline>
    <contour>
      <point x="-464.0" y="-736.0" type="line"/>
      <point x="-212.0" y="-736.0" type="line"/>
      <point x="168.0" y="-128.0" type="line"/>
      <point x="-140.0" y="-128.0" type="line"/>
      <point x="-348.0" y="-464.0" type="line"/>
    </contour>
    <contour>
      <point x="-1772.0" y="-770.0" type="line"/>
      <point x="-896.0" y="-534.0" type="line"/>
      <point x="-896.0" y="-382.0" type="line"/>
      <point x="-1204.0" y="-418.0" type="line"/>
      <point x="-1772.0" y="-530.0" type="line"/>
    </contour>
    <contour>
      <point x="-896.0" y="-478.0" type="line"/>
      <point x="-896.0" y="-326.0" type="line"/>
      <point x="-1772.0" y="-90.0" type="line"/>
      <point x="-1772.0" y="-326.0" type="line"/>
      <point x="-1204.0" y="-442.0" type="line"/>
    </contour>
    <contour>
      <point x="-556.0" y="-736.0" type="line"/>
      <point x="-300.0" y="-736.0" type="line"/>
      <point x="-424.0" y="-464.0" type="line"/>
      <point x="-624.0" y="-128.0" type="line"/>
      <point x="-932.0" y="-128.0" type="line"/>
    </contour>
  </outline>
</glyph>
<glyph name="uni1FBE" format="2">
  <advance width="892.0"/>
  <unicode hex="1FBE"/>
  <note>
similar or identical to iotasubnosp
</note>
  <outline>
    <contour>
      <point x="512.0" y="-680.0" type="curve" smooth="yes"/>
      <point x="569.0" y="-680.0"/>
      <point x="613.0" y="-672.0"/>
      <point x="660.0" y="-660.0" type="curve"/>
      <point x="660.0" y="-480.0" type="line"/>
      <point x="645.0" y="-480.0"/>
      <point x="629.0" y="-484.0"/>
      <point x="596.0" y="-484.0" type="curve" smooth="yes"/>
      <point x="529.0" y="-484.0"/>
      <point x="516.0" y="-460.0"/>
      <point x="516.0" y="-420.0" type="curve" smooth="yes"/>
      <point x="516.0" y="-140.0" type="line"/>
      <point x="232.0" y="-140.0" type="line"/>
      <point x="232.0" y="-420.0" type="line" smooth="yes"/>
      <point x="232.0" y="-604.0"/>
      <point x="361.0" y="-680.0"/>
    </contour>
  </outline>
</glyph>
<glyph name="uni1FFD" format="2">
  <advance width="892.0"/>
  <unicode hex="1FFD"/>
  <outline>
    <contour>
      <point x="296.0" y="1728.0" type="line"/>
      <point x="564.0" y="1728.0" type="line"/>
      <point x="896.0" y="2168.0" type="line"/>
      <point x="896.0" y="2196.0" type="line"/>
      <point x="456.0" y="2196.0" type="line"/>
      <point x="296.0" y="1776.0" type="line"/>
    </contour>
  </outline>
</glyph>
<glyph name="bullet" format="2">
  <advance width="1120.0"/>
  <unicode hex="2022"/>
  <guideline x="-28.0" y="2716.0" angle="0.0"/>
  <guideline x="1104.0" y="816.0" angle="0.0"/>
  <outline>
    <contour>
      <point x="560.0" y="376.0" type="curve" smooth="yes"/>
      <point x="803.0" y="376.0"/>
      <point x="1000.0" y="573.0"/>
      <point x="1000.0" y="816.0" type="curve" smooth="yes"/>
      <point x="1000.0" y="1059.0"/>
      <point x="803.0" y="1256.0"/>
      <point x="560.0" y="1256.0" type="curve" smooth="yes"/>
      <point x="317.0" y="1256.0"/>
      <point x="120.0" y="1059.0"/>
      <point x="120.0" y="816.0" type="curve" smooth="yes"/>
      <point x="120.0" y="573.0"/>
      <point x="317.0" y="376.0"/>
    </contour>
  </outline>
</glyph>
<glyph name="paragraphreversed" format="2">
  <advance width="1680.0"/>
  <unicode hex="204B"/>
  <outline>
    <contour>
      <point x="780.0" y="760.0" type="line"/>
      <point x="900.0" y="760.0" type="line" smooth="yes"/>
      <point x="1360.0" y="760.0"/>
      <point x="1608.0" y="1032.0"/>
      <point x="1608.0" y="1404.0" type="curve" smooth="yes"/>
      <point x="1608.0" y="1772.0"/>
      <point x="1360.0" y="2048.0"/>
      <point x="900.0" y="2048.0" type="curve" smooth="yes"/>
      <point x="444.0" y="2048.0" type="line"/>
      <point x="444.0" y="1648.0" type="line"/>
      <point x="780.0" y="1648.0" type="line"/>
    </contour>
    <contour>
      <point x="132.0" y="0.0" type="line"/>
      <point x="532.0" y="0.0" type="line"/>
      <point x="532.0" y="2048.0" type="line"/>
      <point x="132.0" y="2048.0" type="line"/>
    </contour>
  </outline>
</glyph>
<glyph name="blackleftbullet" format="2">
  <advance width="1754.0"/>
  <unicode hex="204C"/>
  <note>
Based on paragraph. Slightly shorter.
</note>
  <guideline x="1022.0" y="816.0" angle="0.0"/>
  <outline>
    <contour>
      <point x="768.0" y="232.0" type="curve" smooth="yes"/>
      <point x="1210.0" y="232.0" type="line"/>
      <point x="1210.0" y="632.0" type="line"/>
      <point x="874.0" y="632.0" type="line"/>
      <point x="874.0" y="1000.0" type="line"/>
      <point x="1210.0" y="1000.0" type="line"/>
      <point x="1210.0" y="1400.0" type="line"/>
      <point x="768.0" y="1400.0" type="line" smooth="yes"/>
      <point x="427.0" y="1400.0"/>
      <point x="200.0" y="1166.0"/>
      <point x="200.0" y="816.0" type="curve" smooth="yes"/>
      <point x="200.0" y="466.0"/>
      <point x="427.0" y="232.0"/>
    </contour>
    <contour>
      <point x="1122.0" y="232.0" type="line"/>
      <point x="1522.0" y="232.0" type="line"/>
      <point x="1522.0" y="1400.0" type="line"/>
      <point x="1122.0" y="1400.0" type="line"/>
    </contour>
  </outline>
</glyph>
<glyph name="blackrightbullet" format="2">
  <advance width="1754.0"/>
  <unicode hex="204D"/>
  <outline>
    <contour>
      <point x="544.0" y="232.0" type="line"/>
      <point x="986.0" y="232.0" type="line" smooth="yes"/>
      <point x="1327.0" y="232.0"/>
      <point x="1554.0" y="466.0"/>
      <point x="1554.0" y="816.0" type="curve" smooth="yes"/>
      <point x="1554.0" y="1166.0"/>
      <point x="1327.0" y="1400.0"/>
      <point x="986.0" y="1400.0" type="curve" smooth="yes"/>
      <point x="544.0" y="1400.0" type="line"/>
      <point x="544.0" y="1000.0" type="line"/>
      <point x="880.0" y="1000.0" type="line"/>
      <point x="880.0" y="632.0" type="line"/>
      <point x="544.0" y="632.0" type="line"/>
    </contour>
    <contour>
      <point x="232.0" y="232.0" type="line"/>
      <point x="632.0" y="232.0" type="line"/>
      <point x="632.0" y="1400.0" type="line"/>
      <point x="232.0" y="1400.0" type="line"/>
    </contour>
  </outline>
</glyph>
<glyph name="reversedsemicolon" format="2">
  <advance width="888.0"/>
  <unicode hex="204F"/>
  <outline>
    <contour>
      <point x="414.0" y="-500.0" type="curve"/>
      <point x="754.0" y="-500.0" type="line"/>
      <point x="722.0" y="-390.0"/>
      <point x="630.0" y="-104.0"/>
      <point x="630.0" y="168.0" type="curve" smooth="yes"/>
      <point x="630.0" y="280.0" type="line"/>
      <point x="214.0" y="280.0" type="line"/>
      <point x="222.0" y="168.0" type="line" smooth="yes"/>
      <point x="243.0" y="-122.0"/>
      <point x="366.0" y="-390.0"/>
    </contour>
    <contour>
      <point x="414.0" y="1000.0" type="curve" smooth="yes"/>
      <point x="568.0" y="1000.0"/>
      <point x="696.0" y="1124.0"/>
      <point x="694.0" y="1280.0" type="curve" smooth="yes"/>
      <point x="692.0" y="1432.0"/>
      <point x="568.0" y="1556.0"/>
      <point x="414.0" y="1556.0" type="curve" smooth="yes"/>
      <point x="266.0" y="1556.0"/>
      <point x="136.0" y="1432.0"/>
      <point x="134.0" y="1280.0" type="curve" smooth="yes"/>
      <point x="132.0" y="1124.0"/>
      <point x="266.0" y="1000.0"/>
    </contour>
  </outline>
</glyph>
<glyph name="published" format="2">
  <advance width="1856.0"/>
  <unicode hex="2117"/>
  <outline>
    <contour>
      <point x="656.0" y="916.0" type="line"/>
      <point x="868.0" y="916.0" type="line"/>
      <point x="868.0" y="1498.0" type="line"/>
      <point x="968.0" y="1498.0" type="line" smooth="yes"/>
      <point x="1027.0" y="1498.0"/>
      <point x="1080.0" y="1456.0"/>
      <point x="1080.0" y="1386.0" type="curve" smooth="yes"/>
      <point x="1080.0" y="1314.0"/>
      <point x="1025.0" y="1274.0"/>
      <point x="968.0" y="1274.0" type="curve" smooth="yes"/>
      <point x="770.0" y="1274.0" type="line"/>
      <point x="770.0" y="1122.0" type="line"/>
      <point x="1002.0" y="1122.0" type="line" smooth="yes"/>
      <point x="1172.0" y="1122.0"/>
      <point x="1284.0" y="1226.0"/>
      <point x="1284.0" y="1386.0" type="curve" smooth="yes"/>
      <point x="1284.0" y="1545.0"/>
      <point x="1173.0" y="1654.0"/>
      <point x="1008.0" y="1654.0" type="curve" smooth="yes"/>
      <point x="656.0" y="1654.0" type="line"/>
    </contour>
    <contour>
      <point x="928.0" y="476.0" type="curve" smooth="yes"/>
      <point x="1372.0" y="476.0"/>
      <point x="1728.0" y="834.0"/>
      <point x="1728.0" y="1276.0" type="curve" smooth="yes"/>
      <point x="1728.0" y="1718.0"/>
      <point x="1370.0" y="2076.0"/>
      <point x="928.0" y="2076.0" type="curve" smooth="yes"/>
      <point x="486.0" y="2076.0"/>
      <point x="128.0" y="1718.0"/>
      <point x="128.0" y="1276.0" type="curve" smooth="yes"/>
      <point x="128.0" y="834.0"/>
      <point x="486.0" y="476.0"/>
    </contour>
    <contour>
      <point x="928.0" y="700.0" type="curve" smooth="yes"/>
      <point x="610.0" y="700.0"/>
      <point x="352.0" y="958.0"/>
      <point x="352.0" y="1276.0" type="curve" smooth="yes"/>
      <point x="352.0" y="1594.0"/>
      <point x="610.0" y="1852.0"/>
      <point x="928.0" y="1852.0" type="curve" smooth="yes"/>
      <point x="1246.0" y="1852.0"/>
      <point x="1504.0" y="1594.0"/>
      <point x="1504.0" y="1276.0" type="curve" smooth="yes"/>
      <point x="1504.0" y="958.0"/>
      <point x="1248.0" y="700.0"/>
    </contour>
  </outline>
</glyph>
<glyph name="servicemark" format="2">
  <advance width="1856.0"/>
  <unicode hex="2120"/>
  <note>
stroke R: 58, 50%
stroke B: x=120/y=86, 50%
</note>
  <guideline x="920.0" y="1312.0" angle="0.0"/>
  <guideline x="794.0" y="1962.0" angle="0.0"/>
  <guideline x="708.0" y="1398.0" angle="0.0"/>
  <outline>
    <contour>
      <point x="446.0" y="1304.0" type="curve" smooth="yes"/>
      <point x="676.0" y="1304.0"/>
      <point x="788.0" y="1397.0"/>
      <point x="788.0" y="1530.0" type="curve" smooth="yes"/>
      <point x="788.0" y="1646.0"/>
      <point x="681.0" y="1741.0"/>
      <point x="514.0" y="1762.0" type="curve" smooth="yes"/>
      <point x="434.0" y="1772.0" type="line" smooth="yes"/>
      <point x="388.0" y="1778.0"/>
      <point x="371.0" y="1802.0"/>
      <point x="370.0" y="1836.0" type="curve" smooth="yes"/>
      <point x="369.0" y="1879.0"/>
      <point x="418.0" y="1886.0"/>
      <point x="458.0" y="1886.0" type="curve" smooth="yes"/>
      <point x="511.0" y="1886.0"/>
      <point x="536.0" y="1871.0"/>
      <point x="536.0" y="1810.0" type="curve"/>
      <point x="776.0" y="1810.0" type="line"/>
      <point x="776.0" y="1973.0"/>
      <point x="652.0" y="2057.0"/>
      <point x="456.0" y="2056.0" type="curve" smooth="yes"/>
      <point x="263.0" y="2055.0"/>
      <point x="126.0" y="1965.0"/>
      <point x="130.0" y="1832.0" type="curve" smooth="yes"/>
      <point x="133.0" y="1721.0"/>
      <point x="197.0" y="1619.0"/>
      <point x="388.0" y="1596.0" type="curve" smooth="yes"/>
      <point x="470.0" y="1586.0" type="line" smooth="yes"/>
      <point x="533.0" y="1578.0"/>
      <point x="548.0" y="1559.0"/>
      <point x="548.0" y="1530.0" type="curve" smooth="yes"/>
      <point x="548.0" y="1489.0"/>
      <point x="503.0" y="1476.0"/>
      <point x="454.0" y="1476.0" type="curve" smooth="yes"/>
      <point x="382.0" y="1476.0"/>
      <point x="352.0" y="1505.0"/>
      <point x="352.0" y="1544.0" type="curve"/>
      <point x="112.0" y="1544.0" type="line"/>
      <point x="112.0" y="1400.0"/>
      <point x="243.0" y="1304.0"/>
    </contour>
    <contour>
      <point x="896.0" y="1312.0" type="line"/>
      <point x="1120.0" y="1312.0" type="line"/>
      <point x="1120.0" y="2048.0" type="line"/>
      <point x="896.0" y="2048.0" type="line"/>
    </contour>
    <contour>
      <point x="1248.0" y="1312.0" type="line"/>
      <point x="1376.0" y="1312.0" type="line"/>
      <point x="1648.0" y="2048.0" type="line"/>
      <point x="1464.0" y="2048.0" type="line"/>
      <point x="1312.0" y="1598.0" type="line"/>
      <point x="1160.0" y="2048.0" type="line"/>
      <point x="976.0" y="2048.0" type="line"/>
    </contour>
    <contour>
      <point x="1504.0" y="1312.0" type="line"/>
      <point x="1728.0" y="1312.0" type="line"/>
      <point x="1728.0" y="2048.0" type="line"/>
      <point x="1504.0" y="2048.0" type="line"/>
    </contour>
  </outline>
</glyph>
<glyph name="tel" format="2">
  <advance width="2208.0"/>
  <unicode hex="2121"/>
  <outline>
    <contour>
      <point x="912.0" y="1312.0" type="line"/>
      <point x="1456.0" y="1312.0" type="line"/>
      <point x="1456.0" y="1492.0" type="line"/>
      <point x="1136.0" y="1492.0" type="line"/>
      <point x="1136.0" y="1868.0" type="line"/>
      <point x="1456.0" y="1868.0" type="line"/>
      <point x="1456.0" y="2048.0" type="line"/>
      <point x="912.0" y="2048.0" type="line"/>
    </contour>
    <contour>
      <point x="336.0" y="1312.0" type="line"/>
      <point x="560.0" y="1312.0" type="line"/>
      <point x="560.0" y="1984.0" type="line"/>
      <point x="336.0" y="1984.0" type="line"/>
    </contour>
    <contour>
      <point x="112.0" y="1868.0" type="line"/>
      <point x="784.0" y="1868.0" type="line"/>
      <point x="784.0" y="2048.0" type="line"/>
      <point x="112.0" y="2048.0" type="line"/>
    </contour>
    <contour>
      <point x="1084.0" y="1602.0" type="line"/>
      <point x="1392.0" y="1602.0" type="line"/>
      <point x="1392.0" y="1770.0" type="line"/>
      <point x="1084.0" y="1770.0" type="line"/>
    </contour>
    <contour>
      <point x="1584.0" y="1312.0" type="line"/>
      <point x="2096.0" y="1312.0" type="line"/>
      <point x="2096.0" y="1492.0" type="line"/>
      <point x="1808.0" y="1492.0" type="line"/>
      <point x="1808.0" y="2048.0" type="line"/>
      <point x="1584.0" y="2048.0" type="line"/>
    </contour>
  </outline>
</glyph>
<glyph name="trademark" format="2">
  <advance width="1872.0"/>
  <unicode hex="2122"/>
  <outline>
    <contour>
      <point x="1264.0" y="1312.0" type="line"/>
      <point x="1392.0" y="1312.0" type="line"/>
      <point x="1664.0" y="2048.0" type="line"/>
      <point x="1480.0" y="2048.0" type="line"/>
      <point x="1328.0" y="1598.0" type="line"/>
      <point x="1176.0" y="2048.0" type="line"/>
      <point x="992.0" y="2048.0" type="line"/>
    </contour>
    <contour>
      <point x="912.0" y="1312.0" type="line"/>
      <point x="1136.0" y="1312.0" type="line"/>
      <point x="1136.0" y="2048.0" type="line"/>
      <point x="912.0" y="2048.0" type="line"/>
    </contour>
    <contour>
      <point x="1520.0" y="1312.0" type="line"/>
      <point x="1744.0" y="1312.0" type="line"/>
      <point x="1744.0" y="2048.0" type="line"/>
      <point x="1520.0" y="2048.0" type="line"/>
    </contour>
    <contour>
      <point x="336.0" y="1312.0" type="line"/>
      <point x="560.0" y="1312.0" type="line"/>
      <point x="560.0" y="1984.0" type="line"/>
      <point x="336.0" y="1984.0" type="line"/>
    </contour>
    <contour>
      <point x="112.0" y="1868.0" type="line"/>
      <point x="784.0" y="1868.0" type="line"/>
      <point x="784.0" y="2048.0" type="line"/>
      <point x="112.0" y="2048.0" type="line"/>
    </contour>
  </outline>
</glyph>
<glyph name="uni213B" format="2">
  <advance width="2326.0"/>
  <unicode hex="213B"/>
  <outline>
    <contour>
      <point x="128.0" y="1312.0" type="line"/>
      <point x="352.0" y="1312.0" type="line"/>
      <point x="352.0" y="1536.0" type="line"/>
      <point x="594.0" y="1536.0" type="line"/>
      <point x="594.0" y="1716.0" type="line"/>
      <point x="352.0" y="1716.0" type="line"/>
      <point x="352.0" y="1868.0" type="line"/>
      <point x="632.0" y="1868.0" type="line"/>
      <point x="632.0" y="2048.0" type="line"/>
      <point x="128.0" y="2048.0" type="line"/>
    </contour>
    <contour>
      <point x="622.0" y="1312.0" type="line"/>
      <point x="842.0" y="1312.0" type="line"/>
      <point x="1050.0" y="1808.0" type="line"/>
      <point x="1258.0" y="1312.0" type="line"/>
      <point x="1478.0" y="1312.0" type="line"/>
      <point x="1160.0" y="2048.0" type="line"/>
      <point x="940.0" y="2048.0" type="line"/>
    </contour>
    <contour>
      <point x="832.0" y="1440.0" type="line"/>
      <point x="1286.0" y="1440.0" type="line"/>
      <point x="1286.0" y="1608.0" type="line"/>
      <point x="832.0" y="1608.0" type="line"/>
    </contour>
    <contour>
      <point x="1372.0" y="1312.0" type="line"/>
      <point x="1626.0" y="1312.0" type="line"/>
      <point x="2188.0" y="2048.0" type="line"/>
      <point x="1934.0" y="2048.0" type="line"/>
    </contour>
    <contour>
      <point x="1960.0" y="1312.0" type="line"/>
      <point x="2214.0" y="1312.0" type="line"/>
      <point x="1654.0" y="2048.0" type="line"/>
      <point x="1400.0" y="2048.0" type="line"/>
    </contour>
  </outline>
</glyph>
<glyph name="leftArrow" format="2">
  <advance width="2688.0"/>
  <unicode hex="2190"/>
  <note>
stroke (offset curve):
  L head: 32, 0%
  L stem: 32, 50%
  R head: 108, 0%
  R stem: 110, 50%
  B head: 200, 0%
  B stem: 208, 50%
</note>
  <guideline x="928.0" y="832.0" angle="90.0"/>
  <guideline x="278.0" y="896.0" angle="315.0"/>
  <guideline x="278.0" y="896.0" angle="45.0"/>
  <guideline x="178.0" y="896.0" angle="0.0"/>
  <outline>
    <contour>
      <point x="1238.0" y="-64.0" type="line"/>
      <point x="1522.0" y="220.0" type="line"/>
      <point x="1052.0" y="688.0" type="line"/>
      <point x="2336.0" y="688.0" type="line"/>
      <point x="2336.0" y="1104.0" type="line"/>
      <point x="1052.0" y="1104.0" type="line"/>
      <point x="1522.0" y="1574.0" type="line"/>
      <point x="1238.0" y="1856.0" type="line"/>
      <point x="278.0" y="896.0" type="line"/>
    </contour>
  </outline>
</glyph>
<glyph name="upArrow" format="2">
  <advance width="2688.0"/>
  <unicode hex="2191"/>
  <outline>
    <contour>
      <point x="1136.0" y="0.0" type="line"/>
      <point x="1552.0" y="0.0" type="line"/>
      <point x="1552.0" y="1286.0" type="line"/>
      <point x="2022.0" y="816.0" type="line"/>
      <point x="2304.0" y="1100.0" type="line"/>
      <point x="1344.0" y="2060.0" type="line"/>
      <point x="382.0" y="1100.0" type="line"/>
      <point x="668.0" y="816.0" type="line"/>
      <point x="1136.0" y="1286.0" type="line"/>
    </contour>
  </outline>
</glyph>
<glyph name="rightArrow" format="2">
  <advance width="2688.0"/>
  <unicode hex="2192"/>
  <outline>
    <contour>
      <point x="1450.0" y="-64.0" type="line"/>
      <point x="2410.0" y="896.0" type="line"/>
      <point x="1450.0" y="1856.0" type="line"/>
      <point x="1166.0" y="1574.0" type="line"/>
      <point x="1636.0" y="1104.0" type="line"/>
      <point x="352.0" y="1104.0" type="line"/>
      <point x="352.0" y="688.0" type="line"/>
      <point x="1636.0" y="688.0" type="line"/>
      <point x="1166.0" y="220.0" type="line"/>
    </contour>
  </outline>
</glyph>
<glyph name="leftRightArrow" format="2">
  <advance width="3776.0"/>
  <unicode hex="2194"/>
  <outline>
    <contour>
      <point x="1238.0" y="-64.0" type="line"/>
      <point x="1522.0" y="220.0" type="line"/>
      <point x="1052.0" y="688.0" type="line"/>
      <point x="2724.0" y="688.0" type="line"/>
      <point x="2254.0" y="220.0" type="line"/>
      <point x="2538.0" y="-64.0" type="line"/>
      <point x="3498.0" y="896.0" type="line"/>
      <point x="2538.0" y="1856.0" type="line"/>
      <point x="2254.0" y="1574.0" type="line"/>
      <point x="2724.0" y="1104.0" type="line"/>
      <point x="1052.0" y="1104.0" type="line"/>
      <point x="1522.0" y="1574.0" type="line"/>
      <point x="1238.0" y="1856.0" type="line"/>
      <point x="278.0" y="896.0" type="line"/>
    </contour>
  </outline>
</glyph>
<glyph name="upDownArrow" format="2">
  <advance width="2688.0"/>
  <unicode hex="2195"/>
  <note>
vertical align with hyphen
</note>
  <guideline x="1104.0" y="816.0" angle="0.0"/>
  <outline>
    <contour>
      <point x="1344.0" y="-674.0" type="line"/>
      <point x="2304.0" y="286.0" type="line"/>
      <point x="2022.0" y="570.0" type="line"/>
      <point x="1552.0" y="100.0" type="line"/>
      <point x="1552.0" y="1532.0" type="line"/>
      <point x="2022.0" y="1062.0" type="line"/>
      <point x="2304.0" y="1346.0" type="line"/>
      <point x="1344.0" y="2306.0" type="line"/>
      <point x="384.0" y="1346.0" type="line"/>
      <point x="668.0" y="1062.0" type="line"/>
      <point x="1136.0" y="1532.0" type="line"/>
      <point x="1136.0" y="100.0" type="line"/>
      <point x="668.0" y="570.0" type="line"/>
      <point x="384.0" y="286.0" type="line"/>
    </contour>
  </outline>
</glyph>
<glyph name="northWestArrow" format="2">
  <advance width="2688.0"/>
  <unicode hex="2196"/>
  <outline>
    <contour>
      <point x="564.0" y="690.0" type="line"/>
      <point x="966.0" y="690.0" type="line"/>
      <point x="964.0" y="1354.0" type="line"/>
      <point x="1872.0" y="446.0" type="line"/>
      <point x="2166.0" y="740.0" type="line"/>
      <point x="1258.0" y="1648.0" type="line"/>
      <point x="1924.0" y="1648.0" type="line"/>
      <point x="1922.0" y="2048.0" type="line"/>
      <point x="564.0" y="2048.0" type="line"/>
    </contour>
  </outline>
</glyph>
<glyph name="northEastArrow" format="2">
  <advance width="2688.0"/>
  <unicode hex="2197"/>
  <guideline x="1320.0" y="452.0" angle="90.0"/>
  <outline>
    <contour>
      <point x="816.0" y="446.0" type="line"/>
      <point x="1724.0" y="1354.0" type="line"/>
      <point x="1722.0" y="690.0" type="line"/>
      <point x="2124.0" y="690.0" type="line"/>
      <point x="2124.0" y="2048.0" type="line"/>
      <point x="766.0" y="2048.0" type="line"/>
      <point x="764.0" y="1648.0" type="line"/>
      <point x="1430.0" y="1648.0" type="line"/>
      <point x="522.0" y="740.0" type="line"/>
    </contour>
  </outline>
</glyph>
<glyph name="leftHookArrow" format="2">
  <advance width="3298.0"/>
  <unicode hex="21A9"/>
  <note>
stroke offset curve:
L head: 32, 0%
L stem: 32, 50%
R stem: 110, 50%
R head: 108, 0%
B head: 200, 0%
B stem: 208, 50%
</note>
  <guideline x="2256.0" y="1904.0" angle="0.0"/>
  <outline>
    <contour>
      <point x="672.0" y="688.0" type="line"/>
      <point x="2316.0" y="688.0" type="line" smooth="yes"/>
      <point x="2709.0" y="688.0"/>
      <point x="3028.0" y="1007.0"/>
      <point x="3028.0" y="1400.0" type="curve" smooth="yes"/>
      <point x="3028.0" y="1793.0"/>
      <point x="2709.0" y="2112.0"/>
      <point x="2316.0" y="2112.0" type="curve" smooth="yes"/>
      <point x="2164.0" y="2112.0" type="line"/>
      <point x="2164.0" y="1696.0" type="line"/>
      <point x="2316.0" y="1696.0" type="line" smooth="yes"/>
      <point x="2479.0" y="1696.0"/>
      <point x="2612.0" y="1563.0"/>
      <point x="2612.0" y="1400.0" type="curve" smooth="yes"/>
      <point x="2612.0" y="1236.0"/>
      <point x="2480.0" y="1104.0"/>
      <point x="2316.0" y="1104.0" type="curve" smooth="yes"/>
      <point x="672.0" y="1104.0" type="line"/>
    </contour>
    <contour>
      <point x="1238.0" y="-64.0" type="line"/>
      <point x="1521.0" y="219.0" type="line"/>
      <point x="844.0" y="896.0" type="line"/>
      <point x="1521.0" y="1573.0" type="line"/>
      <point x="1238.0" y="1856.0" type="line"/>
      <point x="278.0" y="896.0" type="line"/>
    </contour>
  </outline>
</glyph>
<glyph name="rightHookArrow" format="2">
  <advance width="3298.0"/>
  <unicode hex="21AA"/>
  <note>
Mirror copy of leftHookArrow
</note>
  <outline>
    <contour>
      <point x="982.0" y="688.0" type="curve" smooth="yes"/>
      <point x="2626.0" y="688.0" type="line"/>
      <point x="2626.0" y="1104.0" type="line"/>
      <point x="982.0" y="1104.0" type="line" smooth="yes"/>
      <point x="818.0" y="1104.0"/>
      <point x="686.0" y="1236.0"/>
      <point x="686.0" y="1400.0" type="curve" smooth="yes"/>
      <point x="686.0" y="1563.0"/>
      <point x="819.0" y="1696.0"/>
      <point x="982.0" y="1696.0" type="curve" smooth="yes"/>
      <point x="1134.0" y="1696.0" type="line"/>
      <point x="1134.0" y="2112.0" type="line"/>
      <point x="982.0" y="2112.0" type="line" smooth="yes"/>
      <point x="589.0" y="2112.0"/>
      <point x="270.0" y="1793.0"/>
      <point x="270.0" y="1400.0" type="curve" smooth="yes"/>
      <point x="270.0" y="1007.0"/>
      <point x="589.0" y="688.0"/>
    </contour>
    <contour>
      <point x="2060.0" y="-64.0" type="line"/>
      <point x="3020.0" y="896.0" type="line"/>
      <point x="2060.0" y="1856.0" type="line"/>
      <point x="1778.0" y="1574.0" type="line"/>
      <point x="2454.0" y="896.0" type="line"/>
      <point x="1778.0" y="220.0" type="line"/>
    </contour>
  </outline>
</glyph>
<glyph name="upTipLeftArrow" format="2">
  <advance width="2908.0"/>
  <unicode hex="21B0"/>
  <note>
Mirror copy of carriagereturn
</note>
  <outline>
    <contour>
      <point x="1032.0" y="644.0" type="line"/>
      <point x="1032.0" y="2112.0" type="line"/>
      <point x="278.0" y="1378.0" type="line"/>
    </contour>
    <contour>
      <point x="784.0" y="1170.0" type="line"/>
      <point x="2622.0" y="1170.0" type="line"/>
      <point x="2622.0" y="1586.0" type="line"/>
      <point x="784.0" y="1586.0" type="line"/>
    </contour>
    <contour>
      <point x="2220.0" y="0.0" type="line"/>
      <point x="2628.0" y="0.0" type="line"/>
      <point x="2628.0" y="1586.0" type="line"/>
      <point x="2220.0" y="1586.0" type="line"/>
    </contour>
  </outline>
</glyph>
<glyph name="upTipRightArrow" format="2">
  <advance width="2908.0"/>
  <unicode hex="21B1"/>
  <note>
Mirror copy of carriagereturn
</note>
  <outline>
    <contour>
      <point x="1876.0" y="644.0" type="line"/>
      <point x="2630.0" y="1378.0" type="line"/>
      <point x="1876.0" y="2112.0" type="line"/>
    </contour>
    <contour>
      <point x="280.0" y="0.0" type="line"/>
      <point x="688.0" y="0.0" type="line"/>
      <point x="688.0" y="1586.0" type="line"/>
      <point x="280.0" y="1586.0" type="line"/>
    </contour>
    <contour>
      <point x="286.0" y="1170.0" type="line"/>
      <point x="2124.0" y="1170.0" type="line"/>
      <point x="2124.0" y="1586.0" type="line"/>
      <point x="286.0" y="1586.0" type="line"/>
    </contour>
  </outline>
</glyph>
<glyph name="downTipRightArrow" format="2">
  <advance width="2908.0"/>
  <unicode hex="21B3"/>
  <note>
Mirror copy of carriagereturn
</note>
  <guideline x="178.0" y="896.0" angle="0.0"/>
  <outline>
    <contour>
      <point x="1876.0" y="162.0" type="line"/>
      <point x="2630.0" y="896.0" type="line"/>
      <point x="1876.0" y="1630.0" type="line"/>
    </contour>
    <contour>
      <point x="280.0" y="688.0" type="line"/>
      <point x="688.0" y="688.0" type="line"/>
      <point x="688.0" y="2048.0" type="line"/>
      <point x="280.0" y="2048.0" type="line"/>
    </contour>
    <contour>
      <point x="286.0" y="688.0" type="line"/>
      <point x="2124.0" y="688.0" type="line"/>
      <point x="2124.0" y="1104.0" type="line"/>
      <point x="286.0" y="1104.0" type="line"/>
    </contour>
  </outline>
</glyph>
<glyph name="carriagereturn" format="2">
  <advance width="2908.0"/>
  <unicode hex="21B5"/>
  <guideline x="178.0" y="896.0" angle="0.0"/>
  <outline>
    <contour>
      <point x="1032.0" y="162.0" type="line"/>
      <point x="1032.0" y="1630.0" type="line"/>
      <point x="278.0" y="896.0" type="line"/>
    </contour>
    <contour>
      <point x="784.0" y="688.0" type="line"/>
      <point x="2622.0" y="688.0" type="line"/>
      <point x="2622.0" y="1104.0" type="line"/>
      <point x="784.0" y="1104.0" type="line"/>
    </contour>
    <contour>
      <point x="2220.0" y="688.0" type="line"/>
      <point x="2628.0" y="688.0" type="line"/>
      <point x="2628.0" y="2048.0" type="line"/>
      <point x="2220.0" y="2048.0" type="line"/>
    </contour>
  </outline>
</glyph>
<glyph name="anticlockwiseOpenCircleArrow" format="2">
  <advance width="2688.0"/>
  <unicode hex="21BA"/>
  <guideline x="1332.0" y="1840.0" angle="0.0"/>
  <outline>
    <contour>
      <point x="1344.0" y="1632.0" type="line"/>
      <point x="1681.0" y="1632.0"/>
      <point x="1951.0" y="1361.0"/>
      <point x="1952.0" y="1023.0" type="curve" smooth="yes"/>
      <point x="1953.0" y="687.0"/>
      <point x="1681.0" y="416.0"/>
      <point x="1344.0" y="416.0" type="curve" smooth="yes"/>
      <point x="1008.0" y="416.0"/>
      <point x="735.0" y="688.0"/>
      <point x="736.0" y="1023.0" type="curve"/>
      <point x="320.0" y="1024.0" type="line"/>
      <point x="319.0" y="458.0"/>
      <point x="779.0" y="0.0"/>
      <point x="1344.0" y="0.0" type="curve" smooth="yes"/>
      <point x="1911.0" y="0.0"/>
      <point x="2369.0" y="458.0"/>
      <point x="2368.0" y="1024.0" type="curve" smooth="yes"/>
      <point x="2367.0" y="1590.0"/>
      <point x="1911.0" y="2048.0"/>
      <point x="1344.0" y="2048.0" type="curve"/>
    </contour>
    <contour>
      <point x="1376.0" y="1094.0" type="line"/>
      <point x="1376.0" y="2562.0" type="line"/>
      <point x="622.0" y="1828.0" type="line"/>
    </contour>
  </outline>
</glyph>
<glyph name="clockwiseOpenCircleArrow" format="2">
  <advance width="2688.0"/>
  <unicode hex="21BB"/>
  <outline>
    <contour>
      <point x="1344.0" y="0.0" type="curve" smooth="yes"/>
      <point x="1909.0" y="0.0"/>
      <point x="2369.0" y="458.0"/>
      <point x="2368.0" y="1024.0" type="curve"/>
      <point x="1952.0" y="1024.0" type="line"/>
      <point x="1953.0" y="688.0"/>
      <point x="1680.0" y="416.0"/>
      <point x="1344.0" y="416.0" type="curve" smooth="yes"/>
      <point x="1007.0" y="416.0"/>
      <point x="735.0" y="687.0"/>
      <point x="736.0" y="1024.0" type="curve" smooth="yes"/>
      <point x="737.0" y="1361.0"/>
      <point x="1007.0" y="1632.0"/>
      <point x="1344.0" y="1632.0" type="curve"/>
      <point x="1344.0" y="2048.0" type="line"/>
      <point x="777.0" y="2048.0"/>
      <point x="321.0" y="1590.0"/>
      <point x="320.0" y="1024.0" type="curve" smooth="yes"/>
      <point x="319.0" y="458.0"/>
      <point x="777.0" y="0.0"/>
    </contour>
    <contour>
      <point x="1312.0" y="1094.0" type="line"/>
      <point x="2066.0" y="1828.0" type="line"/>
      <point x="1312.0" y="2562.0" type="line"/>
    </contour>
  </outline>
</glyph>
<glyph name="pageup" format="2">
  <advance width="1852.0"/>
  <unicode hex="21DE"/>
  <outline>
    <contour>
      <point x="192.0" y="1376.0" type="line"/>
      <point x="1660.0" y="1376.0" type="line"/>
      <point x="926.0" y="2130.0" type="line"/>
    </contour>
    <contour>
      <point x="436.0" y="308.0" type="line"/>
      <point x="1416.0" y="308.0" type="line"/>
      <point x="1416.0" y="688.0" type="line"/>
      <point x="436.0" y="688.0" type="line"/>
    </contour>
    <contour>
      <point x="718.0" y="0.0" type="line"/>
      <point x="1134.0" y="0.0" type="line"/>
      <point x="1134.0" y="1690.0" type="line"/>
      <point x="718.0" y="1690.0" type="line"/>
    </contour>
    <contour>
      <point x="436.0" y="842.0" type="line"/>
      <point x="1416.0" y="842.0" type="line"/>
      <point x="1416.0" y="1222.0" type="line"/>
      <point x="436.0" y="1222.0" type="line"/>
    </contour>
  </outline>
</glyph>
<glyph name="pagedown" format="2">
  <advance width="1852.0"/>
  <unicode hex="21DF"/>
  <outline>
    <contour>
      <point x="926.0" y="-62.0" type="line"/>
      <point x="1660.0" y="692.0" type="line"/>
      <point x="192.0" y="692.0" type="line"/>
    </contour>
    <contour>
      <point x="436.0" y="846.0" type="line"/>
      <point x="1416.0" y="846.0" type="line"/>
      <point x="1416.0" y="1226.0" type="line"/>
      <point x="436.0" y="1226.0" type="line"/>
    </contour>
    <contour>
      <point x="718.0" y="378.0" type="line"/>
      <point x="1134.0" y="378.0" type="line"/>
      <point x="1134.0" y="2068.0" type="line"/>
      <point x="718.0" y="2068.0" type="line"/>
    </contour>
    <contour>
      <point x="436.0" y="1380.0" type="line"/>
      <point x="1416.0" y="1380.0" type="line"/>
      <point x="1416.0" y="1760.0" type="line"/>
      <point x="436.0" y="1760.0" type="line"/>
    </contour>
  </outline>
</glyph>
<glyph name="arrowtableft" format="2">
  <advance width="3040.0"/>
  <unicode hex="21E4"/>
  <outline>
    <contour>
      <point x="1620.0" y="290.0" type="line"/>
      <point x="1620.0" y="1758.0" type="line"/>
      <point x="866.0" y="1024.0" type="line"/>
    </contour>
    <contour>
      <point x="256.0" y="292.0" type="line"/>
      <point x="664.0" y="292.0" type="line"/>
      <point x="664.0" y="1756.0" type="line"/>
      <point x="256.0" y="1756.0" type="line"/>
    </contour>
    <contour>
      <point x="1278.0" y="816.0" type="line"/>
      <point x="2784.0" y="816.0" type="line"/>
      <point x="2784.0" y="1232.0" type="line"/>
      <point x="1278.0" y="1232.0" type="line"/>
    </contour>
  </outline>
</glyph>
<glyph name="arrowtabright" format="2">
  <advance width="3040.0"/>
  <unicode hex="21E5"/>
  <note>
Mirror copy of arrowtableft
</note>
  <outline>
    <contour>
      <point x="1420.0" y="290.0" type="line"/>
      <point x="2174.0" y="1024.0" type="line"/>
      <point x="1420.0" y="1758.0" type="line"/>
    </contour>
    <contour>
      <point x="256.0" y="816.0" type="line"/>
      <point x="1762.0" y="816.0" type="line"/>
      <point x="1762.0" y="1232.0" type="line"/>
      <point x="256.0" y="1232.0" type="line"/>
    </contour>
    <contour>
      <point x="2376.0" y="292.0" type="line"/>
      <point x="2784.0" y="292.0" type="line"/>
      <point x="2784.0" y="1756.0" type="line"/>
      <point x="2376.0" y="1756.0" type="line"/>
    </contour>
  </outline>
</glyph>
<glyph name="upWhiteArrow" format="2">
  <advance width="3264.0"/>
  <unicode hex="21E7"/>
  <note>
based of off upBlackArrow
stroke:
L: 32,32,100%,keepCom.
R: 100,90,100%,keepCom.
B: 208,150,100%,keepCom.
</note>
  <outline>
    <contour>
      <point x="192.0" y="768.0" type="line"/>
      <point x="896.0" y="768.0" type="line"/>
      <point x="896.0" y="0.0" type="line"/>
      <point x="2368.0" y="0.0" type="line"/>
      <point x="2368.0" y="768.0" type="line"/>
      <point x="3072.0" y="768.0" type="line"/>
      <point x="1632.0" y="2208.0" type="line"/>
    </contour>
    <contour>
      <point x="998.0" y="1068.0" type="line"/>
      <point x="1632.0" y="1702.0" type="line"/>
      <point x="2266.0" y="1068.0" type="line"/>
      <point x="1952.0" y="1068.0" type="line"/>
      <point x="1952.0" y="300.0" type="line"/>
      <point x="1312.0" y="300.0" type="line"/>
      <point x="1312.0" y="1068.0" type="line"/>
    </contour>
  </outline>
</glyph>
<glyph name="capslock" format="2">
  <advance width="3264.0"/>
  <unicode hex="21EA"/>
  <note>
Based on upWhiteArrow
</note>
  <outline>
    <contour>
      <point x="896.0" y="300.0" type="line"/>
      <point x="2368.0" y="300.0" type="line"/>
      <point x="2368.0" y="768.0" type="line"/>
      <point x="3072.0" y="768.0" type="line"/>
      <point x="1632.0" y="2208.0" type="line"/>
      <point x="192.0" y="768.0" type="line"/>
      <point x="896.0" y="768.0" type="line"/>
    </contour>
    <contour>
      <point x="896.0" y="-608.0" type="line"/>
      <point x="2368.0" y="-608.0" type="line"/>
      <point x="2368.0" y="126.0" type="line"/>
      <point x="896.0" y="126.0" type="line"/>
    </contour>
    <contour>
      <point x="1312.0" y="-328.0" type="line"/>
      <point x="1312.0" y="-154.0" type="line"/>
      <point x="1952.0" y="-154.0" type="line"/>
      <point x="1952.0" y="-328.0" type="line"/>
    </contour>
    <contour>
      <point x="1312.0" y="600.0" type="line"/>
      <point x="1312.0" y="1068.0" type="line"/>
      <point x="998.0" y="1068.0" type="line"/>
      <point x="1632.0" y="1702.0" type="line"/>
      <point x="2266.0" y="1068.0" type="line"/>
      <point x="1952.0" y="1068.0" type="line"/>
      <point x="1952.0" y="600.0" type="line"/>
    </contour>
  </outline>
</glyph>
<glyph name="control" format="2">
  <advance width="2240.0"/>
  <unicode hex="2303"/>
  <note>
stroke:
L: 32,32,100%
R: 108,108,100%
B: 200,200,100%
</note>
  <outline>
    <contour>
      <point x="519.0" y="901.0" type="line"/>
      <point x="1120.0" y="1502.0" type="line"/>
      <point x="1721.0" y="901.0" type="line"/>
      <point x="2004.0" y="1184.0" type="line"/>
      <point x="1120.0" y="2068.0" type="line"/>
      <point x="236.0" y="1184.0" type="line"/>
    </contour>
  </outline>
</glyph>
<glyph name="projective" format="2">
  <advance width="2240.0"/>
  <unicode hex="2305"/>
  <note>
Based on control
</note>
  <guideline x="240.0" y="654.0" angle="90.0"/>
  <guideline x="2000.0" y="654.0" angle="90.0"/>
  <outline>
    <contour>
      <point x="240.0" y="1632.0" type="line"/>
      <point x="2000.0" y="1632.0" type="line"/>
      <point x="2000.0" y="2048.0" type="line"/>
      <point x="240.0" y="2048.0" type="line"/>
    </contour>
    <component base="control" yOffset="-512.0"/>
  </outline>
</glyph>
<glyph name="placeofinterestsign" format="2">
  <advance width="2648.0"/>
  <unicode hex="2318"/>
  <outline>
    <contour>
      <point x="748.0" y="-44.0" type="curve" smooth="yes"/>
      <point x="1021.0" y="-44.0"/>
      <point x="1241.0" y="177.0"/>
      <point x="1242.0" y="448.0" type="curve" smooth="yes"/>
      <point x="1242.0" y="622.0" type="line"/>
      <point x="1408.0" y="622.0" type="line"/>
      <point x="1408.0" y="448.0" type="line" smooth="yes"/>
      <point x="1407.0" y="177.0"/>
      <point x="1628.0" y="-44.0"/>
      <point x="1900.0" y="-44.0" type="curve" smooth="yes"/>
      <point x="2172.0" y="-44.0"/>
      <point x="2392.0" y="177.0"/>
      <point x="2392.0" y="448.0" type="curve" smooth="yes"/>
      <point x="2392.0" y="721.0"/>
      <point x="2172.0" y="941.0"/>
      <point x="1900.0" y="942.0" type="curve" smooth="yes"/>
      <point x="1728.0" y="942.0" type="line"/>
      <point x="1728.0" y="1108.0" type="line"/>
      <point x="1900.0" y="1108.0" type="line" smooth="yes"/>
      <point x="2172.0" y="1107.0"/>
      <point x="2392.0" y="1328.0"/>
      <point x="2392.0" y="1600.0" type="curve" smooth="yes"/>
      <point x="2392.0" y="1872.0"/>
      <point x="2172.0" y="2092.0"/>
      <point x="1900.0" y="2092.0" type="curve" smooth="yes"/>
      <point x="1628.0" y="2092.0"/>
      <point x="1407.0" y="1872.0"/>
      <point x="1408.0" y="1600.0" type="curve" smooth="yes"/>
      <point x="1408.0" y="1428.0" type="line"/>
      <point x="1242.0" y="1428.0" type="line"/>
      <point x="1242.0" y="1600.0" type="line" smooth="yes"/>
      <point x="1241.0" y="1872.0"/>
      <point x="1021.0" y="2092.0"/>
      <point x="748.0" y="2092.0" type="curve" smooth="yes"/>
      <point x="477.0" y="2092.0"/>
      <point x="256.0" y="1872.0"/>
      <point x="256.0" y="1600.0" type="curve" smooth="yes"/>
      <point x="256.0" y="1328.0"/>
      <point x="477.0" y="1107.0"/>
      <point x="748.0" y="1108.0" type="curve" smooth="yes"/>
      <point x="922.0" y="1108.0" type="line"/>
      <point x="922.0" y="942.0" type="line"/>
      <point x="748.0" y="942.0" type="line" smooth="yes"/>
      <point x="477.0" y="941.0"/>
      <point x="256.0" y="721.0"/>
      <point x="256.0" y="448.0" type="curve" smooth="yes"/>
      <point x="256.0" y="177.0"/>
      <point x="477.0" y="-44.0"/>
    </contour>
    <contour>
      <point x="748.0" y="276.0" type="curve" smooth="yes"/>
      <point x="653.0" y="276.0"/>
      <point x="576.0" y="353.0"/>
      <point x="576.0" y="448.0" type="curve" smooth="yes"/>
      <point x="576.0" y="544.0"/>
      <point x="653.0" y="621.0"/>
      <point x="748.0" y="622.0" type="curve" smooth="yes"/>
      <point x="922.0" y="622.0" type="line"/>
      <point x="922.0" y="448.0" type="line" smooth="yes"/>
      <point x="921.0" y="353.0"/>
      <point x="844.0" y="276.0"/>
    </contour>
    <contour>
      <point x="748.0" y="1428.0" type="line" smooth="yes"/>
      <point x="653.0" y="1427.0"/>
      <point x="576.0" y="1504.0"/>
      <point x="576.0" y="1600.0" type="curve" smooth="yes"/>
      <point x="576.0" y="1695.0"/>
      <point x="653.0" y="1772.0"/>
      <point x="748.0" y="1772.0" type="curve" smooth="yes"/>
      <point x="844.0" y="1772.0"/>
      <point x="921.0" y="1695.0"/>
      <point x="922.0" y="1600.0" type="curve" smooth="yes"/>
      <point x="922.0" y="1428.0" type="line"/>
    </contour>
    <contour>
      <point x="1728.0" y="1428.0" type="line"/>
      <point x="1728.0" y="1600.0" type="line" smooth="yes"/>
      <point x="1727.0" y="1695.0"/>
      <point x="1804.0" y="1772.0"/>
      <point x="1900.0" y="1772.0" type="curve" smooth="yes"/>
      <point x="1995.0" y="1772.0"/>
      <point x="2072.0" y="1695.0"/>
      <point x="2072.0" y="1600.0" type="curve" smooth="yes"/>
      <point x="2072.0" y="1504.0"/>
      <point x="1995.0" y="1427.0"/>
      <point x="1900.0" y="1428.0" type="curve" smooth="yes"/>
    </contour>
    <contour>
      <point x="1900.0" y="276.0" type="curve" smooth="yes"/>
      <point x="1804.0" y="276.0"/>
      <point x="1727.0" y="353.0"/>
      <point x="1728.0" y="448.0" type="curve" smooth="yes"/>
      <point x="1728.0" y="622.0" type="line"/>
      <point x="1900.0" y="622.0" type="line" smooth="yes"/>
      <point x="1995.0" y="621.0"/>
      <point x="2072.0" y="544.0"/>
      <point x="2072.0" y="448.0" type="curve" smooth="yes"/>
      <point x="2072.0" y="353.0"/>
      <point x="1995.0" y="276.0"/>
    </contour>
    <contour>
      <point x="1242.0" y="942.0" type="line"/>
      <point x="1242.0" y="1108.0" type="line"/>
      <point x="1408.0" y="1108.0" type="line"/>
      <point x="1408.0" y="942.0" type="line"/>
    </contour>
  </outline>
</glyph>
<glyph name="option" format="2">
  <advance width="2880.0"/>
  <unicode hex="2325"/>
  <note>
stroke:
L: 32,32,50%
R: 108,110,50%
B: 208,200,50%
</note>
  <guideline x="1162.0" y="1840.0" angle="0.0"/>
  <guideline x="1088.0" y="208.0" angle="0.0"/>
  <outline>
    <contour>
      <point x="1666.0" y="2048.0" type="line"/>
      <point x="1666.0" y="1632.0" type="line"/>
      <point x="2624.0" y="1632.0" type="line"/>
      <point x="2624.0" y="2048.0" type="line"/>
    </contour>
    <contour>
      <point x="256.0" y="1632.0" type="line"/>
      <point x="910.0" y="1632.0" type="line"/>
      <point x="1732.0" y="0.0" type="line"/>
      <point x="2624.0" y="0.0" type="line"/>
      <point x="2624.0" y="416.0" type="line"/>
      <point x="1972.0" y="416.0" type="line"/>
      <point x="1148.0" y="2048.0" type="line"/>
      <point x="256.0" y="2048.0" type="line"/>
    </contour>
  </outline>
</glyph>
<glyph name="deleteright" format="2">
  <advance width="3424.0"/>
  <unicode hex="2326"/>
  <outline>
    <contour>
      <point x="256.0" y="0.0" type="line"/>
      <point x="2168.0" y="0.0" type="line"/>
      <point x="3186.0" y="1024.0" type="line"/>
      <point x="2168.0" y="2048.0" type="line"/>
      <point x="256.0" y="2048.0" type="line"/>
    </contour>
    <contour>
      <point x="1164.0" y="464.0" type="line"/>
      <point x="2028.0" y="1296.0" type="line"/>
      <point x="1750.0" y="1584.0" type="line"/>
      <point x="886.0" y="752.0" type="line"/>
    </contour>
    <contour>
      <point x="1750.0" y="464.0" type="line"/>
      <point x="2028.0" y="752.0" type="line"/>
      <point x="1164.0" y="1584.0" type="line"/>
      <point x="886.0" y="1296.0" type="line"/>
    </contour>
    <contour>
      <point x="672.0" y="400.0" type="line"/>
      <point x="672.0" y="1648.0" type="line"/>
      <point x="1990.0" y="1648.0" type="line"/>
      <point x="2612.0" y="1024.0" type="line"/>
      <point x="1990.0" y="400.0" type="line"/>
    </contour>
  </outline>
</glyph>
<glyph name="clear" format="2">
  <advance width="2878.0"/>
  <unicode hex="2327"/>
  <note>
Based on deleteleft
</note>
  <outline>
    <contour>
      <point x="256.0" y="0.0" type="line"/>
      <point x="2622.0" y="0.0" type="line"/>
      <point x="2622.0" y="2048.0" type="line"/>
      <point x="256.0" y="2048.0" type="line"/>
    </contour>
    <contour>
      <point x="656.0" y="400.0" type="line"/>
      <point x="656.0" y="1648.0" type="line"/>
      <point x="2222.0" y="1648.0" type="line"/>
      <point x="2222.0" y="400.0" type="line"/>
    </contour>
    <contour>
      <point x="1732.0" y="464.0" type="line"/>
      <point x="2010.0" y="752.0" type="line"/>
      <point x="1146.0" y="1584.0" type="line"/>
      <point x="868.0" y="1296.0" type="line"/>
    </contour>
    <contour>
      <point x="1146.0" y="464.0" type="line"/>
      <point x="2010.0" y="1296.0" type="line"/>
      <point x="1732.0" y="1584.0" type="line"/>
      <point x="868.0" y="752.0" type="line"/>
    </contour>
  </outline>
</glyph>
<glyph name="deleteleft" format="2">
  <advance width="3424.0"/>
  <unicode hex="232B"/>
  <note>
stroke:
L: 32
R outer: 108,110,100%
R x: 104,104,50%
B outer: 208,200,100%
B x: 200,200,50%
</note>
  <guideline x="1568.0" y="608.0" angle="0.0"/>
  <guideline x="1536.0" y="590.0" angle="90.0"/>
  <guideline x="1584.0" y="1440.0" angle="0.0"/>
  <guideline x="2400.0" y="1488.0" angle="90.0"/>
  <outline>
    <contour>
      <point x="1256.0" y="0.0" type="line"/>
      <point x="3168.0" y="0.0" type="line"/>
      <point x="3168.0" y="2048.0" type="line"/>
      <point x="1256.0" y="2048.0" type="line"/>
      <point x="238.0" y="1024.0" type="line"/>
    </contour>
    <contour>
      <point x="1434.0" y="400.0" type="line"/>
      <point x="813.0" y="1024.0" type="line"/>
      <point x="1434.0" y="1648.0" type="line"/>
      <point x="2752.0" y="1648.0" type="line"/>
      <point x="2752.0" y="400.0" type="line"/>
    </contour>
    <contour>
      <point x="2539.0" y="752.0" type="line"/>
      <point x="1675.0" y="1584.0" type="line"/>
      <point x="1397.0" y="1296.0" type="line"/>
      <point x="2261.0" y="464.0" type="line"/>
    </contour>
    <contour>
      <point x="1675.0" y="464.0" type="line"/>
      <point x="2539.0" y="1296.0" type="line"/>
      <point x="2261.0" y="1584.0" type="line"/>
      <point x="1397.0" y="752.0" type="line"/>
    </contour>
  </outline>
</glyph>
<glyph name="alternativekeysymbol" format="2">
  <advance width="2880.0"/>
  <unicode hex="2387"/>
  <note>
Mirror copy of option
</note>
  <outline>
    <contour>
      <point x="256.0" y="0.0" type="line"/>
      <point x="1148.0" y="0.0" type="line"/>
      <point x="1972.0" y="1632.0" type="line"/>
      <point x="2624.0" y="1632.0" type="line"/>
      <point x="2624.0" y="2048.0" type="line"/>
      <point x="1732.0" y="2048.0" type="line"/>
      <point x="910.0" y="416.0" type="line"/>
      <point x="256.0" y="416.0" type="line"/>
    </contour>
    <contour>
      <point x="1666.0" y="0.0" type="line"/>
      <point x="2624.0" y="0.0" type="line"/>
      <point x="2624.0" y="416.0" type="line"/>
      <point x="1666.0" y="416.0" type="line"/>
    </contour>
  </outline>
</glyph>
<glyph name="brokenCircleNorthWestArrow" format="2">
  <advance width="2688.0"/>
  <unicode hex="238B"/>
  <note>
L: 32
R arrowhead: 108, 50%
R circle: 110, 100%
B: 208
</note>
  <guideline x="736.0" y="1632.0" angle="45.0"/>
  <outline>
    <contour>
      <point x="461.0" y="1613.0" type="line"/>
      <point x="1197.0" y="877.0" type="line"/>
      <point x="1491.0" y="1171.0" type="line"/>
      <point x="755.0" y="1907.0" type="line"/>
    </contour>
    <contour>
      <point x="320.0" y="1216.0" type="line"/>
      <point x="1152.0" y="2048.0" type="line"/>
      <point x="320.0" y="2048.0" type="line"/>
    </contour>
    <contour>
      <point x="1344.0" y="1632.0" type="line"/>
      <point x="1681.0" y="1632.0"/>
      <point x="1951.0" y="1361.0"/>
      <point x="1952.0" y="1023.0" type="curve" smooth="yes"/>
      <point x="1953.0" y="687.0"/>
      <point x="1681.0" y="416.0"/>
      <point x="1344.0" y="416.0" type="curve" smooth="yes"/>
      <point x="1008.0" y="416.0"/>
      <point x="735.0" y="688.0"/>
      <point x="736.0" y="1023.0" type="curve"/>
      <point x="320.0" y="1024.0" type="line"/>
      <point x="319.0" y="458.0"/>
      <point x="779.0" y="0.0"/>
      <point x="1344.0" y="0.0" type="curve" smooth="yes"/>
      <point x="1911.0" y="0.0"/>
      <point x="2369.0" y="458.0"/>
      <point x="2368.0" y="1024.0" type="curve" smooth="yes"/>
      <point x="2367.0" y="1590.0"/>
      <point x="1911.0" y="2048.0"/>
      <point x="1344.0" y="2048.0" type="curve"/>
    </contour>
  </outline>
</glyph>
<glyph name="returnsymbol" format="2">
  <advance width="2908.0"/>
  <unicode hex="23CE"/>
  <outline>
    <contour>
      <point x="1032.0" y="162.0" type="line"/>
      <point x="1032.0" y="1630.0" type="line"/>
      <point x="278.0" y="896.0" type="line"/>
    </contour>
    <contour>
      <point x="784.0" y="688.0" type="line"/>
      <point x="2622.0" y="688.0" type="line"/>
      <point x="2622.0" y="1104.0" type="line"/>
      <point x="784.0" y="1104.0" type="line"/>
    </contour>
    <contour>
      <point x="2220.0" y="688.0" type="line"/>
      <point x="2628.0" y="688.0" type="line"/>
      <point x="2628.0" y="2048.0" type="line"/>
      <point x="2220.0" y="2048.0" type="line"/>
    </contour>
    <contour>
      <point x="1696.0" y="1632.0" type="line"/>
      <point x="2622.0" y="1632.0" type="line"/>
      <point x="2622.0" y="2048.0" type="line"/>
      <point x="1696.0" y="2048.0" type="line"/>
    </contour>
  </outline>
</glyph>
<glyph name="openbullet" format="2">
  <advance width="1120.0"/>
  <unicode hex="25E6"/>
  <guideline x="1104.0" y="816.0" angle="0.0"/>
  <outline>
    <contour>
      <point x="560.0" y="376.0" type="curve" smooth="yes"/>
      <point x="803.0" y="376.0"/>
      <point x="1000.0" y="573.0"/>
      <point x="1000.0" y="816.0" type="curve" smooth="yes"/>
      <point x="1000.0" y="1059.0"/>
      <point x="803.0" y="1256.0"/>
      <point x="560.0" y="1256.0" type="curve" smooth="yes"/>
      <point x="317.0" y="1256.0"/>
      <point x="120.0" y="1059.0"/>
      <point x="120.0" y="816.0" type="curve" smooth="yes"/>
      <point x="120.0" y="573.0"/>
      <point x="317.0" y="376.0"/>
    </contour>
    <contour>
      <point x="560.0" y="636.0" type="curve" smooth="yes"/>
      <point x="461.0" y="636.0"/>
      <point x="380.0" y="717.0"/>
      <point x="380.0" y="816.0" type="curve" smooth="yes"/>
      <point x="380.0" y="915.0"/>
      <point x="461.0" y="996.0"/>
      <point x="560.0" y="996.0" type="curve" smooth="yes"/>
      <point x="659.0" y="996.0"/>
      <point x="740.0" y="915.0"/>
      <point x="740.0" y="816.0" type="curve" smooth="yes"/>
      <point x="740.0" y="717.0"/>
      <point x="659.0" y="636.0"/>
    </contour>
  </outline>
</glyph>
<glyph name="blackSunWithRays" format="2">
  <advance width="3008.0"/>
  <unicode hex="2600"/>
  <outline>
    <contour>
      <point x="1504.0" y="572.0" type="curve" smooth="yes"/>
      <point x="1751.0" y="572.0"/>
      <point x="1954.0" y="775.0"/>
      <point x="1956.0" y="1024.0" type="curve" smooth="yes"/>
      <point x="1958.0" y="1273.0"/>
      <point x="1751.0" y="1476.0"/>
      <point x="1504.0" y="1476.0" type="curve" smooth="yes"/>
      <point x="1253.0" y="1476.0"/>
      <point x="1050.0" y="1273.0"/>
      <point x="1052.0" y="1024.0" type="curve" smooth="yes"/>
      <point x="1054.0" y="775.0"/>
      <point x="1253.0" y="572.0"/>
    </contour>
    <contour>
      <point x="1380.0" y="1676.0" type="line"/>
      <point x="1628.0" y="1676.0" type="line"/>
      <point x="1628.0" y="2284.0" type="line"/>
      <point x="1380.0" y="2284.0" type="line"/>
    </contour>
    <contour>
      <point x="2052.0" y="1396.0" type="line"/>
      <point x="2484.0" y="1828.0" type="line"/>
      <point x="2308.0" y="2004.0" type="line"/>
      <point x="1876.0" y="1572.0" type="line"/>
    </contour>
    <contour>
      <point x="2156.0" y="900.0" type="line"/>
      <point x="2764.0" y="900.0" type="line"/>
      <point x="2764.0" y="1148.0" type="line"/>
      <point x="2156.0" y="1148.0" type="line"/>
    </contour>
    <contour>
      <point x="2308.0" y="44.0" type="line"/>
      <point x="2484.0" y="220.0" type="line"/>
      <point x="2052.0" y="652.0" type="line"/>
      <point x="1876.0" y="476.0" type="line"/>
    </contour>
    <contour>
      <point x="1380.0" y="-236.0" type="line"/>
      <point x="1628.0" y="-236.0" type="line"/>
      <point x="1628.0" y="372.0" type="line"/>
      <point x="1380.0" y="372.0" type="line"/>
    </contour>
    <contour>
      <point x="700.0" y="44.0" type="line"/>
      <point x="1132.0" y="476.0" type="line"/>
      <point x="956.0" y="652.0" type="line"/>
      <point x="524.0" y="220.0" type="line"/>
    </contour>
    <contour>
      <point x="244.0" y="900.0" type="line"/>
      <point x="852.0" y="900.0" type="line"/>
      <point x="852.0" y="1148.0" type="line"/>
      <point x="244.0" y="1148.0" type="line"/>
    </contour>
    <contour>
      <point x="956.0" y="1396.0" type="line"/>
      <point x="1132.0" y="1572.0" type="line"/>
      <point x="700.0" y="2004.0" type="line"/>
      <point x="524.0" y="1828.0" type="line"/>
    </contour>
  </outline>
</glyph>
<glyph name="whitestar" format="2">
  <advance width="2944.0"/>
  <unicode hex="2606"/>
  <outline>
    <contour>
      <point x="1472.0" y="526.0" type="line"/>
      <point x="2228.0" y="-20.0" type="line"/>
      <point x="1930.0" y="868.0" type="line"/>
      <point x="2688.0" y="1416.0" type="line"/>
      <point x="1760.0" y="1416.0" type="line"/>
      <point x="1472.0" y="2304.0" type="line"/>
      <point x="1184.0" y="1416.0" type="line"/>
      <point x="256.0" y="1416.0" type="line"/>
      <point x="1014.0" y="868.0" type="line"/>
      <point x="716.0" y="-20.0" type="line"/>
    </contour>
    <contour>
      <point x="1472.0" y="848.0" type="line"/>
      <point x="1220.0" y="666.0" type="line"/>
      <point x="1322.0" y="968.0" type="line"/>
      <point x="1060.0" y="1156.0" type="line"/>
      <point x="1374.0" y="1156.0" type="line"/>
      <point x="1472.0" y="1462.0" type="line"/>
      <point x="1572.0" y="1156.0" type="line"/>
      <point x="1886.0" y="1156.0" type="line"/>
      <point x="1624.0" y="968.0" type="line"/>
      <point x="1724.0" y="666.0" type="line"/>
    </contour>
  </outline>
</glyph>
<glyph name="sunWithRays" format="2">
  <advance width="3008.0"/>
  <unicode hex="263C"/>
  <guideline x="1572.0" y="232.0" angle="90.0"/>
  <outline>
    <contour>
      <point x="1504.0" y="572.0" type="curve" smooth="yes"/>
      <point x="1751.0" y="572.0"/>
      <point x="1954.0" y="775.0"/>
      <point x="1956.0" y="1024.0" type="curve" smooth="yes"/>
      <point x="1958.0" y="1273.0"/>
      <point x="1751.0" y="1476.0"/>
      <point x="1504.0" y="1476.0" type="curve" smooth="yes"/>
      <point x="1253.0" y="1476.0"/>
      <point x="1050.0" y="1273.0"/>
      <point x="1052.0" y="1024.0" type="curve" smooth="yes"/>
      <point x="1054.0" y="775.0"/>
      <point x="1253.0" y="572.0"/>
    </contour>
    <contour>
      <point x="1504.0" y="840.0" type="curve" smooth="yes"/>
      <point x="1400.0" y="840.0"/>
      <point x="1318.0" y="922.0"/>
      <point x="1320.0" y="1024.0" type="curve" smooth="yes"/>
      <point x="1322.0" y="1126.0"/>
      <point x="1400.0" y="1208.0"/>
      <point x="1504.0" y="1208.0" type="curve" smooth="yes"/>
      <point x="1604.0" y="1208.0"/>
      <point x="1686.0" y="1126.0"/>
      <point x="1688.0" y="1024.0" type="curve" smooth="yes"/>
      <point x="1690.0" y="922.0"/>
      <point x="1604.0" y="840.0"/>
    </contour>
    <contour>
      <point x="1380.0" y="1676.0" type="line"/>
      <point x="1628.0" y="1676.0" type="line"/>
      <point x="1628.0" y="2284.0" type="line"/>
      <point x="1380.0" y="2284.0" type="line"/>
    </contour>
    <contour>
      <point x="2052.0" y="1396.0" type="line"/>
      <point x="2484.0" y="1828.0" type="line"/>
      <point x="2308.0" y="2004.0" type="line"/>
      <point x="1876.0" y="1572.0" type="line"/>
    </contour>
    <contour>
      <point x="2156.0" y="900.0" type="line"/>
      <point x="2764.0" y="900.0" type="line"/>
      <point x="2764.0" y="1148.0" type="line"/>
      <point x="2156.0" y="1148.0" type="line"/>
    </contour>
    <contour>
      <point x="2308.0" y="44.0" type="line"/>
      <point x="2484.0" y="220.0" type="line"/>
      <point x="2052.0" y="652.0" type="line"/>
      <point x="1876.0" y="476.0" type="line"/>
    </contour>
    <contour>
      <point x="1380.0" y="-236.0" type="line"/>
      <point x="1628.0" y="-236.0" type="line"/>
      <point x="1628.0" y="372.0" type="line"/>
      <point x="1380.0" y="372.0" type="line"/>
    </contour>
    <contour>
      <point x="700.0" y="44.0" type="line"/>
      <point x="1132.0" y="476.0" type="line"/>
      <point x="956.0" y="652.0" type="line"/>
      <point x="524.0" y="220.0" type="line"/>
    </contour>
    <contour>
      <point x="244.0" y="900.0" type="line"/>
      <point x="852.0" y="900.0" type="line"/>
      <point x="852.0" y="1148.0" type="line"/>
      <point x="244.0" y="1148.0" type="line"/>
    </contour>
    <contour>
      <point x="956.0" y="1396.0" type="line"/>
      <point x="1132.0" y="1572.0" type="line"/>
      <point x="700.0" y="2004.0" type="line"/>
      <point x="524.0" y="1828.0" type="line"/>
    </contour>
  </outline>
</glyph>
<glyph name="leftLongArrow" format="2">
  <advance width="3776.0"/>
  <unicode hex="27F5"/>
  <guideline x="928.0" y="832.0" angle="90.0"/>
  <outline>
    <contour>
      <point x="1238.0" y="-64.0" type="line"/>
      <point x="1522.0" y="220.0" type="line"/>
      <point x="1052.0" y="688.0" type="line"/>
      <point x="3424.0" y="688.0" type="line"/>
      <point x="3424.0" y="1104.0" type="line"/>
      <point x="1052.0" y="1104.0" type="line"/>
      <point x="1522.0" y="1574.0" type="line"/>
      <point x="1238.0" y="1856.0" type="line"/>
      <point x="278.0" y="896.0" type="line"/>
    </contour>
  </outline>
</glyph>
<glyph name="rightLongArrow" format="2">
  <advance width="3776.0"/>
  <unicode hex="27F6"/>
  <guideline x="924.0" y="832.0" angle="90.0"/>
  <outline>
    <contour>
      <point x="2538.0" y="-64.0" type="line"/>
      <point x="3498.0" y="896.0" type="line"/>
      <point x="2538.0" y="1856.0" type="line"/>
      <point x="2254.0" y="1574.0" type="line"/>
      <point x="2724.0" y="1104.0" type="line"/>
      <point x="352.0" y="1104.0" type="line"/>
      <point x="352.0" y="688.0" type="line"/>
      <point x="2724.0" y="688.0" type="line"/>
      <point x="2254.0" y="220.0" type="line"/>
    </contour>
  </outline>
</glyph>
<glyph name="leftRightLongArrow" format="2">
  <advance width="4928.0"/>
  <unicode hex="27F7"/>
  <outline>
    <contour>
      <point x="1238.0" y="-64.0" type="line"/>
      <point x="1522.0" y="220.0" type="line"/>
      <point x="1052.0" y="688.0" type="line"/>
      <point x="3876.0" y="688.0" type="line"/>
      <point x="3406.0" y="220.0" type="line"/>
      <point x="3690.0" y="-64.0" type="line"/>
      <point x="4650.0" y="896.0" type="line"/>
      <point x="3690.0" y="1856.0" type="line"/>
      <point x="3406.0" y="1574.0" type="line"/>
      <point x="3876.0" y="1104.0" type="line"/>
      <point x="1052.0" y="1104.0" type="line"/>
      <point x="1522.0" y="1574.0" type="line"/>
      <point x="1238.0" y="1856.0" type="line"/>
      <point x="278.0" y="896.0" type="line"/>
    </contour>
  </outline>
</glyph>
<glyph name="upBlackArrow" format="2">
  <advance width="3264.0"/>
  <unicode hex="2B06"/>
  <outline>
    <contour>
      <point x="192.0" y="768.0" type="line"/>
      <point x="896.0" y="768.0" type="line"/>
      <point x="896.0" y="0.0" type="line"/>
      <point x="2368.0" y="0.0" type="line"/>
      <point x="2368.0" y="768.0" type="line"/>
      <point x="3072.0" y="768.0" type="line"/>
      <point x="1632.0" y="2208.0" type="line"/>
    </contour>
  </outline>
</glyph>
<glyph name="G.1" format="2">
  <advance width="2192.0"/>
  <unicode hex="E002"/>
  <outline>
    <contour>
      <point x="1128.0" y="-28.0" type="curve" smooth="yes"/>
      <point x="1367.0" y="-28.0"/>
      <point x="1550.0" y="64.0"/>
      <point x="1676.0" y="224.0" type="curve"/>
      <point x="1688.0" y="224.0" type="line"/>
      <point x="1710.0" y="0.0" type="line"/>
      <point x="2064.0" y="0.0" type="line"/>
      <point x="2064.0" y="1144.0" type="line"/>
      <point x="1140.0" y="1144.0" type="line"/>
      <point x="1140.0" y="748.0" type="line"/>
      <point x="1628.0" y="748.0" type="line"/>
      <point x="1512.0" y="758.0" type="line"/>
      <point x="1512.0" y="574.0"/>
      <point x="1386.0" y="456.0"/>
      <point x="1132.0" y="456.0" type="curve" smooth="yes"/>
      <point x="848.0" y="456.0"/>
      <point x="696.0" y="668.0"/>
      <point x="696.0" y="1028.0" type="curve" smooth="yes"/>
      <point x="696.0" y="1384.0"/>
      <point x="866.0" y="1592.0"/>
      <point x="1146.0" y="1592.0" type="curve" smooth="yes"/>
      <point x="1320.0" y="1592.0"/>
      <point x="1450.0" y="1514.0"/>
      <point x="1484.0" y="1372.0" type="curve"/>
      <point x="2044.0" y="1372.0" type="line"/>
      <point x="2002.0" y="1786.0"/>
      <point x="1618.0" y="2076.0"/>
      <point x="1134.0" y="2076.0" type="curve" smooth="yes"/>
      <point x="582.0" y="2076.0"/>
      <point x="124.0" y="1696.0"/>
      <point x="124.0" y="1020.0" type="curve" smooth="yes"/>
      <point x="124.0" y="372.0"/>
      <point x="534.0" y="-28.0"/>
    </contour>
  </outline>
</glyph>
<glyph name="Ghook.1" format="2">
  <advance width="2464.0"/>
  <unicode hex="E004"/>
  <outline>
    <contour>
      <point x="2044.0" y="1372.0" type="line"/>
      <point x="2044.0" y="1748.0" type="line" smooth="yes"/>
      <point x="2044.0" y="1920.0"/>
      <point x="2188.0" y="1944.0"/>
      <point x="2336.0" y="1944.0" type="curve" smooth="yes"/>
      <point x="2384.0" y="1944.0"/>
      <point x="2432.0" y="1936.0"/>
      <point x="2484.0" y="1932.0" type="curve"/>
      <point x="2484.0" y="2364.0" type="line"/>
      <point x="2392.0" y="2384.0"/>
      <point x="2320.0" y="2396.0"/>
      <point x="2240.0" y="2396.0" type="curve" smooth="yes"/>
      <point x="1852.0" y="2396.0"/>
      <point x="1468.0" y="2168.0"/>
      <point x="1472.0" y="1748.0" type="curve" smooth="yes"/>
      <point x="1476.0" y="1372.0" type="line"/>
    </contour>
    <component base="G.1"/>
  </outline>
</glyph>
<glyph name="rrthook" format="2">
  <advance width="1220.0"/>
  <unicode hex="E05D"/>
  <outline>
    <contour>
      <point x="752.0" y="-576.0" type="curve" smooth="yes"/>
      <point x="884.0" y="-576.0"/>
      <point x="960.0" y="-564.0"/>
      <point x="1024.0" y="-560.0" type="curve"/>
      <point x="1024.0" y="-152.0" type="line"/>
      <point x="980.0" y="-156.0"/>
      <point x="940.0" y="-160.0"/>
      <point x="900.0" y="-160.0" type="curve" smooth="yes"/>
      <point x="804.0" y="-160.0"/>
      <point x="692.0" y="-140.0"/>
      <point x="692.0" y="-48.0" type="curve" smooth="yes"/>
      <point x="692.0" y="0.0" type="line"/>
      <point x="140.0" y="0.0" type="line"/>
      <point x="140.0" y="-48.0" type="line" smooth="yes"/>
      <point x="140.0" y="-500.0"/>
      <point x="412.0" y="-576.0"/>
    </contour>
    <component base="r"/>
  </outline>
</glyph>
<glyph name="bracketleft.sups" format="2">
  <advance width="828.0"/>
  <unicode hex="E0A7"/>
  <outline>
    <contour>
      <point x="206.0" y="736.0" type="line"/>
      <point x="800.0" y="736.0" type="line"/>
      <point x="800.0" y="1008.0" type="line"/>
      <point x="558.0" y="1008.0" type="line"/>
      <point x="558.0" y="2156.0" type="line"/>
      <point x="800.0" y="2156.0" type="line"/>
      <point x="800.0" y="2428.0" type="line"/>
      <point x="206.0" y="2428.0" type="line"/>
    </contour>
  </outline>
</glyph>
<glyph name="tildeacutecomb.uc" format="2">
  <unicode hex="E12A"/>
  <outline>
    <contour>
      <point x="-764.0" y="2712.0" type="line"/>
      <point x="-392.0" y="2712.0" type="line"/>
      <point x="-46.0" y="3098.0" type="line"/>
      <point x="-498.0" y="3098.0" type="line"/>
    </contour>
    <component base="tilde" xScale="0.93458" yScale="0.88695" xOffset="-1202.0" yOffset="680.0"/>
  </outline>
</glyph>
<glyph name="uni1F16A" format="2">
  <advance width="1914.0"/>
  <unicode hex="1F16A"/>
  <outline>
    <contour>
      <point x="480.0" y="1312.0" type="line"/>
      <point x="608.0" y="1312.0" type="line"/>
      <point x="880.0" y="2048.0" type="line"/>
      <point x="696.0" y="2048.0" type="line"/>
      <point x="544.0" y="1598.0" type="line"/>
      <point x="392.0" y="2048.0" type="line"/>
      <point x="208.0" y="2048.0" type="line"/>
    </contour>
    <contour>
      <point x="128.0" y="1312.0" type="line"/>
      <point x="352.0" y="1312.0" type="line"/>
      <point x="352.0" y="2048.0" type="line"/>
      <point x="128.0" y="2048.0" type="line"/>
    </contour>
    <contour>
      <point x="736.0" y="1312.0" type="line"/>
      <point x="960.0" y="1312.0" type="line"/>
      <point x="960.0" y="2048.0" type="line"/>
      <point x="736.0" y="2048.0" type="line"/>
    </contour>
    <contour>
      <point x="1454.0" y="1308.0" type="curve" smooth="yes"/>
      <point x="1686.0" y="1308.0"/>
      <point x="1795.0" y="1404.0"/>
      <point x="1802.0" y="1614.0" type="curve"/>
      <point x="1596.0" y="1614.0" type="line"/>
      <point x="1588.0" y="1528.0"/>
      <point x="1544.0" y="1488.0"/>
      <point x="1454.0" y="1488.0" type="curve" smooth="yes"/>
      <point x="1347.0" y="1488.0"/>
      <point x="1298.0" y="1549.0"/>
      <point x="1298.0" y="1682.0" type="curve" smooth="yes"/>
      <point x="1298.0" y="1814.0"/>
      <point x="1347.0" y="1874.0"/>
      <point x="1454.0" y="1874.0" type="curve" smooth="yes"/>
      <point x="1542.0" y="1874.0"/>
      <point x="1587.0" y="1836.0"/>
      <point x="1596.0" y="1754.0" type="curve"/>
      <point x="1802.0" y="1754.0" type="line"/>
      <point x="1795.0" y="1953.0"/>
      <point x="1678.0" y="2054.0"/>
      <point x="1454.0" y="2054.0" type="curve" smooth="yes"/>
      <point x="1192.0" y="2054.0"/>
      <point x="1072.0" y="1937.0"/>
      <point x="1072.0" y="1682.0" type="curve" smooth="yes"/>
      <point x="1072.0" y="1426.0"/>
      <point x="1192.0" y="1308.0"/>
    </contour>
  </outline>
</glyph>
<glyph name="uni1F16B" format="2">
  <advance width="1864.0"/>
  <unicode hex="1F16B"/>
  <outline>
    <contour>
      <point x="480.0" y="1312.0" type="line"/>
      <point x="608.0" y="1312.0" type="line"/>
      <point x="880.0" y="2048.0" type="line"/>
      <point x="696.0" y="2048.0" type="line"/>
      <point x="544.0" y="1598.0" type="line"/>
      <point x="392.0" y="2048.0" type="line"/>
      <point x="208.0" y="2048.0" type="line"/>
    </contour>
    <contour>
      <point x="128.0" y="1312.0" type="line"/>
      <point x="352.0" y="1312.0" type="line"/>
      <point x="352.0" y="2048.0" type="line"/>
      <point x="128.0" y="2048.0" type="line"/>
    </contour>
    <contour>
      <point x="736.0" y="1312.0" type="line"/>
      <point x="960.0" y="1312.0" type="line"/>
      <point x="960.0" y="2048.0" type="line"/>
      <point x="736.0" y="2048.0" type="line"/>
    </contour>
    <contour>
      <point x="1088.0" y="1312.0" type="line"/>
      <point x="1312.0" y="1312.0" type="line"/>
      <point x="1312.0" y="2048.0" type="line"/>
      <point x="1088.0" y="2048.0" type="line"/>
    </contour>
    <contour>
      <point x="1188.0" y="1312.0" type="line"/>
      <point x="1408.0" y="1312.0" type="line"/>
      <point x="1620.0" y="1312.0"/>
      <point x="1752.0" y="1440.0"/>
      <point x="1752.0" y="1620.0" type="curve" smooth="yes"/>
      <point x="1752.0" y="1736.0" type="line" smooth="yes"/>
      <point x="1752.0" y="1916.0"/>
      <point x="1620.0" y="2048.0"/>
      <point x="1408.0" y="2048.0" type="curve" smooth="yes"/>
      <point x="1188.0" y="2048.0" type="line"/>
      <point x="1188.0" y="1868.0" type="line"/>
      <point x="1408.0" y="1868.0" type="line" smooth="yes"/>
      <point x="1492.0" y="1868.0"/>
      <point x="1528.0" y="1812.0"/>
      <point x="1528.0" y="1744.0" type="curve" smooth="yes"/>
      <point x="1528.0" y="1612.0" type="line" smooth="yes"/>
      <point x="1528.0" y="1548.0"/>
      <point x="1488.0" y="1492.0"/>
      <point x="1408.0" y="1492.0" type="curve" smooth="yes"/>
      <point x="1188.0" y="1492.0" type="line"/>
    </contour>
  </outline>
</glyph>
<glyph name="_part.t_base" format="2">
  <advance width="1140.0"/>
  <guideline x="516.0" y="1844.0" angle="90.0"/>
  <guideline x="504.0" y="2016.0" angle="0.0"/>
  <outline>
    <contour>
      <point x="240.0" y="1904.0" type="line"/>
      <point x="240.0" y="442.0" type="line"/>
      <point x="236.0" y="120.0"/>
      <point x="435.0" y="-43.0"/>
      <point x="816.0" y="-22.0" type="curve" smooth="yes"/>
      <point x="941.0" y="-15.0"/>
      <point x="1034.0" y="11.0"/>
      <point x="1084.0" y="26.0" type="curve"/>
      <point x="1004.0" y="414.0" type="line"/>
      <point x="983.0" y="409.0"/>
      <point x="929.0" y="398.0"/>
      <point x="896.0" y="398.0" type="curve" smooth="yes"/>
      <point x="824.0" y="398.0"/>
      <point x="792.0" y="430.0"/>
      <point x="792.0" y="494.0" type="curve" smooth="yes"/>
      <point x="792.0" y="1904.0" type="line"/>
    </contour>
  </outline>
</glyph>
<glyph name="bracketright.sups" format="2">
  <advance width="828.0"/>
  <outline>
    <contour>
      <point x="28.0" y="736.0" type="line"/>
      <point x="622.0" y="736.0" type="line"/>
      <point x="622.0" y="2428.0" type="line"/>
      <point x="28.0" y="2428.0" type="line"/>
      <point x="28.0" y="2156.0" type="line"/>
      <point x="270.0" y="2156.0" type="line"/>
      <point x="270.0" y="1008.0" type="line"/>
      <point x="28.0" y="1008.0" type="line"/>
    </contour>
  </outline>
</glyph>
<glyph name="commaaccentright.cn" format="2">
  <advance width="704.0"/>
  <outline>
    <contour>
      <point x="174.0" y="1626.0" type="line"/>
      <point x="472.0" y="1626.0" type="line"/>
      <point x="546.0" y="2160.0" type="line"/>
      <point x="174.0" y="2160.0" type="line"/>
    </contour>
  </outline>
</glyph>
<glyph name="cyrillictail.cn" format="2">
  <advance width="876.0"/>
  <outline>
    <contour>
      <point x="664.0" y="384.0" type="line"/>
      <point x="256.0" y="384.0" type="line"/>
      <point x="256.0" y="72.0" type="line"/>
      <point x="257.0" y="-168.0"/>
      <point x="157.0" y="-276.0"/>
      <point x="96.0" y="-384.0" type="curve"/>
      <point x="340.0" y="-524.0" type="line"/>
      <point x="525.0" y="-396.0"/>
      <point x="669.0" y="-136.0"/>
      <point x="664.0" y="112.0" type="curve"/>
    </contour>
  </outline>
</glyph>
<glyph name="dieresisacutecomb.cn" format="2">
  <outline>
    <contour>
      <point x="-764.0" y="2712.0" type="line"/>
      <point x="-392.0" y="2712.0" type="line"/>
      <point x="-46.0" y="3098.0" type="line"/>
      <point x="-498.0" y="3098.0" type="line"/>
    </contour>
    <component base="casedieresis.cn" xScale="0.93458" yScale="0.90276" xOffset="-1214.0" yOffset="204.0"/>
  </outline>
</glyph>
<glyph name="macronacutecomb.cn" format="2">
  <outline>
    <contour>
      <point x="-844.0" y="2712.0" type="line"/>
      <point x="-472.0" y="2712.0" type="line"/>
      <point x="-126.0" y="3098.0" type="line"/>
      <point x="-578.0" y="3098.0" type="line"/>
    </contour>
    <component base="macron" xOffset="-1544.0" yOffset="472.0"/>
  </outline>
</glyph>
<glyph name="macrongravecomb.cn" format="2">
  <outline>
    <contour>
      <point x="-568.0" y="2712.0" type="line"/>
      <point x="-196.0" y="2712.0" type="line"/>
      <point x="-462.0" y="3098.0" type="line"/>
      <point x="-914.0" y="3098.0" type="line"/>
    </contour>
    <component base="macron" xOffset="-1304.0" yOffset="472.0"/>
  </outline>
</glyph>
<glyph name="one.ss01" format="2">
  <advance width="1396.0"/>
  <guideline x="-32.0" y="1240.0" angle="0.0"/>
  <guideline x="-32.0" y="764.0" angle="0.0"/>
  <outline>
    <contour>
      <point x="1112.0" y="2048.0" type="line"/>
      <point x="552.0" y="2048.0" type="line"/>
      <point x="552.0" y="1854.0"/>
      <point x="357.0" y="1688.0"/>
      <point x="128.0" y="1688.0" type="curve"/>
      <point x="128.0" y="1252.0" type="line"/>
      <point x="349.0" y="1252.0"/>
      <point x="481.0" y="1329.0"/>
      <point x="536.0" y="1404.0" type="curve"/>
      <point x="556.0" y="1404.0" type="line"/>
      <point x="556.0" y="0.0" type="line"/>
      <point x="1112.0" y="0.0" type="line"/>
    </contour>
  </outline>
</glyph>
<glyph name="rdescend" format="2">
  <advance width="1220.0"/>
  <outline>
    <contour>
      <point x="140.0" y="-576.0" type="line"/>
      <point x="692.0" y="-576.0" type="line"/>
      <point x="692.0" y="0.0" type="line"/>
      <point x="140.0" y="0.0" type="line"/>
    </contour>
    <component base="r"/>
  </outline>
</glyph>
